<?xml version="1.0" encoding="UTF-8"?>
<svg version="1.1" xmlns="http://www.w3.org/2000/svg" width="1173" height="1131">
<path d="M0 0 C387.09 0 774.18 0 1173 0 C1173 373.23 1173 746.46 1173 1131 C785.91 1131 398.82 1131 0 1131 C0 757.77 0 384.54 0 0 Z " fill="#F3EFE9" transform="translate(0,0)"/>
<path d="M0 0 C1.91046308 -0.00374381 3.82092463 -0.00834822 5.7313838 -0.01373065 C10.94343749 -0.02588589 16.15542664 -0.02570906 21.36749125 -0.02334189 C27.00372192 -0.02293182 32.63993242 -0.033991 38.27615356 -0.04345703 C49.30489259 -0.06002719 60.33361022 -0.06556478 71.36236066 -0.06668179 C80.33349071 -0.0676342 89.30461375 -0.07175415 98.27574158 -0.07808304 C119.60725192 -0.09282407 140.93875572 -0.10513393 162.2702713 -0.10408592 C162.9514482 -0.10405476 163.63262509 -0.10402361 164.33444371 -0.10399151 C167.78635704 -0.10382531 171.23827037 -0.10362723 174.6901837 -0.10342209 C175.37565507 -0.1033822 176.06112644 -0.10334231 176.76736967 -0.10330121 C178.1535587 -0.10322034 179.53974774 -0.10313674 180.92593678 -0.10305043 C202.47811735 -0.10182575 224.03023491 -0.11682745 245.58239746 -0.14419556 C269.83842396 -0.17498504 294.09439617 -0.1920986 318.35044622 -0.19026911 C331.17749236 -0.18960685 344.00446743 -0.1950273 356.83149719 -0.21662521 C367.75458537 -0.23490037 378.67757028 -0.23913257 389.60066718 -0.22560637 C395.16507527 -0.21910847 400.7292856 -0.21884367 406.29367447 -0.23631287 C449.86975293 -0.36454525 449.86975293 -0.36454525 467.73571777 4.26742554 C468.49583947 4.461737 469.25596117 4.65604846 470.03911686 4.85624814 C503.30080421 13.53627373 536.26257963 37.78853841 553.65661621 67.37875366 C559.70781297 77.96971705 564.24248062 88.56508109 567.73571777 100.26742554 C568.30806152 102.08113647 568.30806152 102.08113647 568.89196777 103.93148804 C572.97323076 117.31220027 572.88504611 130.3933385 572.88288879 144.25396729 C572.88619262 146.18302646 572.88991927 148.11208496 572.89403027 150.04114258 C572.90399909 155.32308601 572.90775876 160.60501807 572.91041958 165.88696957 C572.9143378 171.59139419 572.92391488 177.29580995 572.93263245 183.00022888 C572.952352 196.7652365 572.96245639 210.53024479 572.97136024 224.29526299 C572.9757497 230.78575163 572.98111472 237.27623945 572.98634911 243.76672745 C573.0033553 265.35542849 573.01787349 286.9441284 573.02509785 308.53283501 C573.02557259 309.92742141 573.02604848 311.32200782 573.02652551 312.71659423 C573.02688007 313.75390942 573.02688007 313.75390942 573.0272418 314.81218047 C573.02844292 318.31549133 573.02965839 321.81880219 573.03088379 325.32211304 C573.03112394 326.01733657 573.03136409 326.7125601 573.03161152 327.42885102 C573.03949969 349.95592597 573.06292459 372.4829482 573.09543973 395.01000015 C573.12980237 418.8608313 573.14945375 442.71162807 573.15274209 466.56248486 C573.15490315 479.55049828 573.16359287 492.53843414 573.18920326 505.52642441 C573.21096623 516.5883667 573.2189331 527.65021259 573.20923648 538.71217386 C573.20470829 544.34921904 573.20649153 549.98606551 573.22599792 555.62308311 C573.24374833 560.79763817 573.24253657 565.97185131 573.22710063 571.1464106 C573.22474249 573.00445542 573.22895327 574.86252468 573.24092928 576.7205324 C573.44980241 611.30729777 562.11665741 645.819878 537.89660645 671.19418335 C536.19128357 672.90149972 534.46780442 674.58735596 532.73571777 676.26742554 C531.97259277 677.05117554 531.20946777 677.83492554 530.42321777 678.64242554 C529.53634277 679.50867554 528.64946777 680.37492554 527.73571777 681.26742554 C527.06282715 681.92484741 526.38993652 682.58226929 525.69665527 683.25961304 C514.5278609 693.77355953 501.5334304 700.82213903 487.73571777 707.26742554 C486.67574585 707.77438965 486.67574585 707.77438965 485.59436035 708.29159546 C480.19327594 710.80234111 474.82611377 712.53443095 469.04821777 713.95492554 C468.25222168 714.16697632 467.45622559 714.3790271 466.6361084 714.59750366 C453.12854973 717.97705859 438.96941834 717.41375669 425.14234924 717.40113831 C423.1842243 717.40300961 421.22609973 717.40531158 419.26797575 717.40800363 C413.92017224 717.41408786 408.57238444 717.41399206 403.22457826 717.41280925 C397.44481123 717.41260441 391.66504913 717.41813175 385.88528442 717.42286682 C374.57769738 717.43115368 363.27011556 717.43392071 351.96252573 717.4344792 C342.774322 717.43495497 333.58611998 717.43701276 324.39791679 717.44017982 C302.57659057 717.4475483 280.75526567 717.45370531 258.93393803 717.45318127 C258.23714588 717.45316569 257.54035372 717.45315011 256.82244666 717.45313406 C253.29112616 717.45305096 249.75980567 717.45295192 246.22848517 717.45284935 C245.52719585 717.45282941 244.82590653 717.45280946 244.10336601 717.45278891 C242.68519455 717.45274847 241.26702309 717.45270668 239.84885162 717.45266352 C217.75994562 717.45205009 195.67105494 717.45957242 173.58215332 717.47323608 C148.74728063 717.48859214 123.91241808 717.49719005 99.07754034 717.49627286 C85.93354848 717.49594062 72.78957392 717.49870023 59.64558601 717.50945091 C48.46329345 717.51853881 37.28102605 717.52074501 26.09873141 717.51394149 C20.39257346 717.51066859 14.68646384 717.51064748 8.98031044 717.51929474 C3.75919643 717.52712587 -1.46183065 717.52576317 -6.68294246 717.51701061 C-8.57361891 717.51546821 -10.46430175 717.51731943 -12.35497069 717.52287068 C-14.9217654 717.52990931 -17.48825332 717.52465404 -20.0550375 717.51631451 C-20.79150193 717.52128269 -21.52796637 717.52625087 -22.2867479 717.5313696 C-26.93234284 717.49939055 -30.85247763 716.68139273 -35.26428223 715.26742554 C-37.09298656 714.96692216 -38.9266922 714.69518515 -40.76428223 714.45492554 C-58.61503 711.54640818 -75.17143112 703.44527011 -89.26428223 692.26742554 C-90.10346191 691.63062866 -90.9426416 690.99383179 -91.80725098 690.33773804 C-100.46516283 683.6530247 -108.10672926 676.32265049 -114.26428223 667.26742554 C-115.02740723 666.50430054 -115.79053223 665.74117554 -116.57678223 664.95492554 C-117.13365723 664.39805054 -117.69053223 663.84117554 -118.26428223 663.26742554 C-118.26428223 662.60742554 -118.26428223 661.94742554 -118.26428223 661.26742554 C-118.92428223 661.26742554 -119.58428223 661.26742554 -120.26428223 661.26742554 C-122.86403543 657.78279592 -125.01596348 653.98579885 -127.26428223 650.26742554 C-128.15760254 648.82689819 -128.15760254 648.82689819 -129.06896973 647.35726929 C-140.54587229 628.40762795 -146.45636249 607.11637977 -146.39291668 584.93537331 C-146.39466972 584.1438989 -146.39642275 583.3524245 -146.39822891 582.53696603 C-146.40286162 579.89856822 -146.40043048 577.2602262 -146.397995 574.62182617 C-146.39986436 572.70544241 -146.40216556 570.78905903 -146.40486032 568.87267625 C-146.41096952 563.61655431 -146.41084575 558.3604483 -146.40966594 553.10432363 C-146.40946171 547.43126128 -146.41498298 541.75820402 -146.41972351 536.08514404 C-146.42802651 524.97270524 -146.43077822 513.86027175 -146.43133589 502.74783011 C-146.43181135 493.710735 -146.43386759 484.67364164 -146.43703651 475.63654709 C-146.44441044 454.1697342 -146.45056141 432.70292302 -146.45003796 411.23610878 C-146.45002238 410.54986919 -146.4500068 409.86362961 -146.44999075 409.15659488 C-146.44990764 405.67871164 -146.4498086 402.20082841 -146.44970604 398.72294517 C-146.4496861 398.03226909 -146.44966615 397.34159302 -146.4496456 396.62998736 C-146.44960516 395.23327041 -146.44956336 393.83655345 -146.44952021 392.4398365 C-146.44890797 370.72757432 -146.45640508 349.01532778 -146.47009277 327.30307007 C-146.48547803 302.88818817 -146.49404482 278.47331835 -146.49312955 254.05843103 C-146.49279806 241.13978323 -146.49552412 228.22115306 -146.5063076 215.30250931 C-146.51543339 204.29940179 -146.51757092 193.29631989 -146.51079818 182.29321022 C-146.50754307 176.68483797 -146.50743961 171.0765148 -146.51615143 165.46814728 C-146.52406248 160.32207292 -146.52253839 155.17608619 -146.5138673 150.03001384 C-146.51234235 148.18002396 -146.51410998 146.33002738 -146.51972737 144.48004539 C-146.54581754 135.26889377 -146.31028683 126.17170577 -145.36992359 117.00317955 C-145.29188469 116.23792477 -145.2138458 115.47266998 -145.13344209 114.68422566 C-142.06149333 87.65214396 -127.07098635 64.03214192 -109.26428223 44.26742554 C-108.35742676 43.25035522 -108.35742676 43.25035522 -107.43225098 42.21273804 C-91.36217668 25.2069379 -66.84039488 9.79216473 -43.88928223 5.14242554 C-38.66078883 4.49120635 -38.66078883 4.49120635 -34.26428223 2.26742554 C-22.89176045 0.05427304 -11.53848772 -0.02164991 0 0 Z " fill="#24173C" transform="translate(370.2642822265625,203.73257446289063)"/>
<path d="M0 0 C387.09 0 774.18 0 1173 0 C1173 373.23 1173 746.46 1173 1131 C785.91 1131 398.82 1131 0 1131 C0 757.77 0 384.54 0 0 Z M63 52 C54.37647493 62.86169189 53.41320614 75.42897549 53.50222206 88.74083996 C53.49865116 90.42172078 53.49332678 92.10259862 53.48642033 93.78346905 C53.47253582 98.39472186 53.48347474 103.00562913 53.49853251 107.61686585 C53.5105003 112.63641956 53.49920649 117.65593036 53.49089086 122.675484 C53.47952703 131.47031504 53.48301744 140.26504278 53.4962616 149.05986977 C53.51590152 162.13788969 53.51263092 175.21583403 53.504761 188.29386273 C53.4922101 210.29608295 53.4985104 232.29826783 53.51594925 254.3004818 C53.53318983 276.09174684 53.54301259 297.88299273 53.54261398 319.67426491 C53.54259814 321.04305531 53.54258269 322.41184571 53.54256765 323.78063612 C53.5424929 329.28126059 53.54236005 334.78188505 53.54215602 340.28250952 C53.54160079 355.65855621 53.54237817 371.0346027 53.54413414 386.4106493 C53.54421348 387.11081616 53.54429283 387.81098302 53.54437457 388.53236706 C53.5469902 410.84041964 53.5553317 433.14846617 53.56785011 455.45651531 C53.56825599 456.17999173 53.56866187 456.90346816 53.56908005 457.64886811 C53.57569745 469.39755182 53.58268809 481.14623531 53.58969748 492.8949188 C53.61747906 539.49871664 53.63076349 586.1024927 53.62939453 632.70629883 C53.62935375 634.17958656 53.62931333 635.65287429 53.62927325 637.12616202 C53.62919289 640.06924526 53.62911135 643.0123285 53.62902904 645.95541175 C53.6288462 652.55438248 53.62867749 659.15335321 53.62853586 665.75232394 C53.62850432 667.21388859 53.62847144 668.67545325 53.6284372 670.1370179 C53.62754673 709.17734182 53.63648134 748.21766276 53.64914167 787.25798446 C53.64936201 787.93950608 53.64958235 788.62102771 53.64980937 789.3232015 C53.65280022 798.57328212 53.65280022 798.57328212 53.65585856 807.82336272 C53.66084997 822.81359249 53.66473207 837.80382125 53.66548586 852.79405189 C53.66552092 853.46960307 53.66555598 854.14515426 53.6655921 854.84117669 C53.66573051 857.56377729 53.66586101 860.2863779 53.66598707 863.0089785 C53.66715886 888.26361654 53.67470237 913.5182403 53.69494446 938.77287158 C53.70518576 951.77515516 53.70998942 964.77741348 53.70695209 977.7797009 C53.70548579 986.45772596 53.71127148 995.13572637 53.72303971 1003.81374353 C53.72955343 1008.76265355 53.73289828 1013.71151051 53.72751851 1018.66042312 C53.72269665 1023.16137662 53.72704739 1027.66222394 53.73875474 1032.16316394 C53.74135771 1033.7823585 53.74061055 1035.40156275 53.73612153 1037.02075317 C53.69215036 1054.26842633 56.82391676 1065.90038765 68.75390625 1078.80859375 C80.68141344 1090.44569207 93.75697984 1092.60429104 109.76648808 1092.50336456 C111.45017511 1092.50754321 113.13385853 1092.51347273 114.817534 1092.52098203 C119.43658357 1092.53652237 124.05529759 1092.52725762 128.67434154 1092.51387022 C133.70238909 1092.50370944 138.73038581 1092.5167686 143.75842613 1092.52684355 C152.56821663 1092.54128536 161.37790907 1092.54085509 170.18770409 1092.53065491 C183.28808781 1092.51552818 196.38838878 1092.52325825 209.48877195 1092.53548814 C231.52910445 1092.55533553 253.56940729 1092.5560676 275.60974312 1092.54518127 C276.615987 1092.5446845 276.615987 1092.5446845 277.64255905 1092.54417769 C278.31446442 1092.54384597 278.9863698 1092.54351426 279.67863594 1092.54317249 C300.15267923 1092.53307781 320.62670662 1092.53047509 341.10075188 1092.53526306 C342.4720498 1092.53557298 343.84334772 1092.5358816 345.21464564 1092.53618894 C350.72538154 1092.53743082 356.23611742 1092.53870549 361.7468533 1092.540028 C377.15132123 1092.54369592 392.55578921 1092.5459784 407.96025753 1092.54717255 C408.66172338 1092.54722713 409.36318922 1092.54728171 410.08591161 1092.54733795 C432.43567477 1092.54897492 454.7854324 1092.54446822 477.13519382 1092.53577423 C477.86002776 1092.53549323 478.58486169 1092.53521224 479.33166028 1092.53492273 C491.10233382 1092.53034299 502.87300724 1092.52546511 514.64368065 1092.52056203 C561.32944504 1092.50113578 608.01516354 1092.50203942 654.70092773 1092.52148438 C666.46686835 1092.52636916 678.23280898 1092.53121338 689.99874973 1092.53577423 C690.72322823 1092.53605602 691.44770672 1092.53633782 692.19413911 1092.53662815 C714.52160534 1092.54525312 736.84906776 1092.54890995 759.17653561 1092.54717255 C759.8774722 1092.54711821 760.57840879 1092.54706387 761.30058589 1092.54700789 C776.68735457 1092.54575797 792.07412284 1092.54322339 807.46089112 1092.53953053 C812.96637081 1092.53821398 818.47185052 1092.53696165 823.97733024 1092.53572769 C825.34693986 1092.53541814 826.71654948 1092.53510322 828.08615911 1092.53478291 C848.55527459 1092.530009 869.02437213 1092.53407338 889.49348538 1092.54417769 C890.16439743 1092.54450888 890.83530948 1092.54484006 891.5265522 1092.54518127 C892.19622564 1092.545512 892.86589909 1092.54584273 893.55586567 1092.54618348 C916.14332772 1092.5572167 938.73075178 1092.55314978 961.3182084 1092.5320583 C974.34231956 1092.52029836 987.3663213 1092.51956775 1000.39042966 1092.534643 C1009.08555975 1092.54359862 1017.78060195 1092.53805552 1026.475719 1092.52062392 C1031.43280317 1092.51109148 1036.38966964 1092.50789112 1041.34674711 1092.52224785 C1045.85751329 1092.53517897 1050.36786887 1092.52966583 1054.87860519 1092.50952521 C1056.49906986 1092.50550098 1058.1195686 1092.50814954 1059.74000617 1092.51834896 C1075.68692815 1092.61158953 1088.39992937 1088.59538786 1100.0625 1077.375 C1102.76845952 1074.66428484 1104.43523742 1072.84038551 1105 1069 C1105.66 1069 1106.32 1069 1107 1069 C1107.63381508 1067.67083439 1108.25648484 1066.33635391 1108.875 1065 C1109.22304687 1064.2575 1109.57109375 1063.515 1109.9296875 1062.75 C1113.40578564 1053.81871136 1113.28444451 1045.19648102 1113.26006222 1035.74970055 C1113.26306015 1034.07329214 1113.26693113 1032.3968851 1113.27159455 1030.7204805 C1113.28188767 1026.10305249 1113.27971764 1021.48570103 1113.27553919 1016.86826652 C1113.27317593 1011.84879848 1113.28233819 1006.82934937 1113.29002339 1001.80988848 C1113.30187874 993.00887727 1113.30623583 984.2078868 1113.30570221 975.40686798 C1113.30490958 962.31929118 1113.31545259 949.2317406 1113.32811778 936.1441708 C1113.35157693 911.41069556 1113.36112509 886.67722414 1113.36586904 861.94373982 C1113.36639275 859.21561983 1113.36691858 856.48749985 1113.36744571 853.75937986 C1113.36757477 853.08238701 1113.36770383 852.40539415 1113.3678368 851.70788635 C1113.37074262 836.70479465 1113.37690127 821.70170484 1113.38354302 806.6986144 C1113.38626649 800.52053652 1113.38889756 794.34245859 1113.39152867 788.16438067 C1113.39181958 787.48175065 1113.39211049 786.79912063 1113.39241022 786.09580485 C1113.409033 746.97717734 1113.42089028 707.85855074 1113.42332363 668.73991966 C1113.42341826 667.27595818 1113.42351327 665.8119967 1113.42360866 664.34803521 C1113.42403641 657.73839595 1113.42444178 651.12875669 1113.42484702 644.51911743 C1113.42502862 641.57172317 1113.42521351 638.62432891 1113.42539909 635.67693465 C1113.42549111 634.20171054 1113.42558151 632.72648642 1113.42567028 631.25126231 C1113.42848449 584.60677921 1113.45021096 537.96233933 1113.48706055 491.31787109 C1113.51453683 456.53159496 1113.54042105 421.74532711 1113.54700565 386.95903969 C1113.54720581 385.90854689 1113.54720581 385.90854689 1113.54741001 384.83683201 C1113.55028242 369.46238502 1113.55169957 354.0879382 1113.55176822 338.71349096 C1113.5518079 333.21210832 1113.55196485 327.71072569 1113.55218274 322.20934307 C1113.55223639 320.8407487 1113.5522845 319.47215433 1113.55232707 318.10355996 C1113.55307032 296.30266071 1113.56873081 274.50180411 1113.59193837 252.70091818 C1113.61586042 230.1294384 1113.62161054 207.55800845 1113.60653328 184.98651831 C1113.59837385 171.97413775 1113.60410111 158.96193657 1113.62971413 145.94957772 C1113.64544281 137.25830579 1113.64301203 128.56716147 1113.6258074 119.87589266 C1113.61651745 114.92335846 1113.61509744 109.97117023 1113.63577347 105.01866274 C1113.65444285 100.50843779 1113.64987328 95.99884171 1113.62718253 91.48864064 C1113.62304359 89.87174904 1113.6271837 88.25480818 1113.64088022 86.63796929 C1113.76595118 70.81932429 1110.20461715 58.43124598 1098.9375 46.88671875 C1086.19347066 34.80264807 1073.63946061 32.69602125 1056.74411392 32.74273109 C1055.06710042 32.74003674 1053.39008814 32.73646836 1051.71307814 32.73210663 C1047.09398172 32.72264447 1042.47496411 32.72565063 1037.8558638 32.73066217 C1032.83461978 32.73392626 1027.81339271 32.72564838 1022.79215407 32.71884382 C1013.98808102 32.70852972 1005.18402997 32.70570247 996.37995148 32.70775604 C983.28793183 32.71080235 970.19593657 32.70249028 957.10392166 32.69200679 C932.36268659 32.67264908 907.62145743 32.66703667 882.88021639 32.66589268 C880.1513165 32.66576318 877.42241662 32.6656273 874.69351673 32.66548586 C873.67774229 32.66543485 873.67774229 32.66543485 872.64144715 32.6653828 C857.63469058 32.66456586 842.6279357 32.66018595 827.62118002 32.65517417 C821.44180003 32.65311746 815.26242001 32.65113739 809.08304 32.64914167 C808.40027051 32.64892049 807.71750102 32.64869931 807.01404155 32.64847143 C767.88812648 32.63582331 728.76221253 32.6275732 689.63629532 32.62848854 C688.17208087 32.6285201 686.70786642 32.62855157 685.24365197 32.62858296 C678.63284862 32.62872972 672.02204527 32.62890606 665.41124192 32.62909073 C662.46331787 32.62917297 659.51539382 32.62925327 656.56746977 32.62933335 C655.09198078 32.62937414 653.61649179 32.62941618 652.14100279 32.62945947 C605.4829863 32.63082 558.82500017 32.61618459 512.16699219 32.58837891 C500.41115452 32.58137687 488.65531682 32.57443795 476.89947891 32.56785011 C476.17562569 32.56744436 475.45177246 32.56703862 474.70598429 32.56662057 C452.39624317 32.55419066 430.08650454 32.54665947 407.7767601 32.54413414 C406.7261067 32.54401429 406.7261067 32.54401429 405.65422797 32.54389201 C390.27798162 32.54218546 374.90173542 32.54166307 359.52548899 32.54223277 C354.02359171 32.54242574 348.52169442 32.54252982 343.01979714 32.54259023 C341.65106572 32.54260605 340.2823343 32.54262646 338.91360288 32.54265147 C317.10517537 32.5430041 295.29677384 32.5316088 273.48835377 32.51434384 C250.91206496 32.49656183 228.33580902 32.49339858 205.75951555 32.5069681 C192.74229596 32.5143699 179.72519021 32.51066254 166.70798263 32.49108342 C158.0160359 32.47911265 149.32417191 32.4816421 140.63222903 32.49602441 C135.6777061 32.50381191 130.72340401 32.50526877 125.76889637 32.48910971 C121.25924376 32.47453016 116.74999544 32.47845006 112.24036069 32.49695744 C110.62140652 32.50039267 109.00242052 32.49716739 107.3834988 32.48635503 C88.68881639 32.3698867 75.45830411 37.84173236 63 52 Z " fill="#000000" transform="translate(0,0)"/>
<path d="M0 0 C0.74572234 -0.00320648 1.49144468 -0.00641296 2.25976467 -0.0097166 C4.76054336 -0.01802315 7.26108297 -0.01209004 9.76186562 -0.00622082 C11.57213137 -0.0092412 13.38239585 -0.01313011 15.19265807 -0.01781338 C20.1689699 -0.0281167 25.14520988 -0.02590562 30.12152767 -0.02163279 C35.48768648 -0.0191698 40.8538278 -0.02817442 46.21998024 -0.03567028 C56.73357367 -0.04843122 67.24714158 -0.05020923 77.76074146 -0.04787002 C86.30506057 -0.04608825 94.84937192 -0.04783347 103.39369011 -0.05209446 C104.60895097 -0.05268965 105.82421183 -0.05328484 107.07629878 -0.05389806 C109.54496673 -0.05510979 112.01363468 -0.05632393 114.48230262 -0.05754044 C137.64288485 -0.06842136 160.80345253 -0.06625088 183.96403559 -0.06015559 C205.15877495 -0.05498599 226.35346835 -0.06624205 247.54819863 -0.08525381 C269.3034303 -0.10461897 291.05864021 -0.11289053 312.81388056 -0.10913056 C325.03079403 -0.1072165 337.24766837 -0.109726 349.46457481 -0.1238451 C359.86495077 -0.13574302 370.26526354 -0.13718164 380.66564034 -0.12505493 C385.97291255 -0.11915508 391.28006908 -0.11809737 396.58733368 -0.13005733 C401.44556413 -0.14087825 406.30358179 -0.13785802 411.16180213 -0.12379565 C412.91949227 -0.12113825 414.67719889 -0.12354785 416.43487291 -0.13153151 C418.82496697 -0.14163436 421.21432086 -0.13321874 423.60438538 -0.12025452 C424.62675006 -0.13121854 424.62675006 -0.13121854 425.66976857 -0.14240405 C431.20791406 -0.080185 436.79006822 1.01513583 441.09669145 4.67098055 C444.1886359 8.34853096 443.58267995 12.83474027 443.58916664 17.36604786 C443.59413155 18.19232685 443.59909645 19.01860584 443.60421181 19.86992359 C443.61881973 22.60358478 443.62563153 25.33718803 443.63115883 28.07088184 C443.6369094 29.96752391 443.64266714 31.86416596 443.64843178 33.76080799 C443.65893647 37.73615763 443.66478328 41.71148707 443.6682682 45.68684864 C443.67376575 50.79060789 443.69782277 55.89410207 443.72624016 60.99777794 C443.74482089 64.91388207 443.75006959 68.8299216 443.75160408 72.74606609 C443.75463918 74.62841149 443.76269638 76.51075552 443.77578926 78.39305782 C443.79276204 81.01967985 443.7909918 83.64564392 443.78447914 86.27229786 C443.79369392 87.05520695 443.80290871 87.83811604 443.81240273 88.64474964 C443.7955265 90.80722523 443.7955265 90.80722523 443.42803383 94.25447559 C439.72583635 96.72260725 437.89624632 96.49694754 433.47808266 96.48152637 C432.7753875 96.48181843 432.07269234 96.48211048 431.34870338 96.48241138 C429.02736476 96.48101867 426.7063476 96.46546046 424.38506508 96.44978809 C422.77509677 96.44605775 421.16512619 96.44321088 419.5551548 96.44121265 C415.31856451 96.43357786 411.08211143 96.41393072 406.84557533 96.3918047 C402.52216892 96.37134294 398.19874033 96.36221023 393.87529945 96.35213184 C385.39281462 96.33068466 376.9104413 96.2965506 368.42803383 96.25447559 C368.77401619 97.39415287 369.11999855 98.53383015 369.47646523 99.7080431 C369.93369835 101.23297242 370.390686 102.75797536 370.84746742 104.28304005 C371.18898087 105.40446777 371.18898087 105.40446777 371.53739357 106.54855061 C375.24567539 118.98615735 375.84008687 131.65792142 375.80303383 144.56697559 C375.80221809 145.64673664 375.80221809 145.64673664 375.80138588 146.74831104 C375.76252009 157.97057544 375.0901993 168.56909057 371.42803383 179.25447559 C371.19245766 179.94718555 370.95688148 180.63989552 370.71416664 181.35359669 C368.39801251 187.96144818 366.04691597 193.88611446 361.42803383 199.25447559 C360.7448307 200.11428028 360.06162758 200.97408497 359.35772133 201.85994434 C358.67967445 202.71201466 358.00162758 203.56408497 357.30303383 204.44197559 C356.6198307 205.30178028 355.93662758 206.16158497 355.23272133 207.04744434 C353.42803383 209.25447559 353.42803383 209.25447559 351.42803383 211.25447559 C351.86127203 215.59607548 354.68572411 218.69402933 357.15069008 222.13338184 C358.42803383 224.25447559 358.42803383 224.25447559 358.42803383 227.25447559 C359.08803383 227.25447559 359.74803383 227.25447559 360.42803383 227.25447559 C361.60137367 228.8116045 361.60137367 228.8116045 362.88897133 230.98103809 C363.59666664 232.15859669 363.59666664 232.15859669 364.31865883 233.35994434 C364.80850258 234.19138966 365.29834633 235.02283497 365.80303383 235.87947559 C366.76806787 237.49732678 367.73419342 239.11452746 368.70147133 240.73103809 C369.16263344 241.50737598 369.62379555 242.28371387 370.09893227 243.08357716 C371.26710469 244.99162073 372.49486571 246.82259643 373.77959633 248.65291309 C375.42803383 251.25447559 375.42803383 251.25447559 375.42803383 254.25447559 C368.75853051 254.61112982 362.09149765 254.85523801 355.41460609 255.02351856 C353.1470704 255.09368687 350.88016304 255.18906156 348.61480141 255.31062794 C330.30326947 256.26825145 330.30326947 256.26825145 325.51659584 252.91573048 C322.02728904 249.19745795 320.17858721 244.99250425 318.42803383 240.25447559 C317.83744179 238.79243702 317.83744179 238.79243702 317.23491859 237.30086231 C316.96864662 236.6255547 316.70237465 235.95024708 316.42803383 235.25447559 C315.38904945 235.59220997 314.35006508 235.92994434 313.27959633 236.27791309 C311.87083284 236.72871741 310.46197343 237.17922201 309.05303383 237.62947559 C308.37369789 237.85119434 307.69436195 238.07291309 306.99444008 238.30135059 C282.32662634 246.13972132 257.40326036 243.22899893 234.44756508 231.76619434 C215.04229741 221.24768574 200.51309623 202.76013711 193.49053383 181.99275684 C191.64346539 175.49406385 190.529651 168.91628216 189.42803383 162.25447559 C189.16784462 161.06567799 189.16784462 161.06567799 188.90239906 159.85286427 C185.49835846 141.20685082 188.18449858 119.07078774 194.40459633 101.28181934 C195.53478673 98.47130867 195.53478673 98.47130867 195.42803383 96.25447559 C163.08803383 96.25447559 130.74803383 96.25447559 97.42803383 96.25447559 C97.42803383 105.49447559 97.42803383 114.73447559 97.42803383 124.25447559 C97.09803383 124.91447559 96.76803383 125.57447559 96.42803383 126.25447559 C119.52803383 126.25447559 142.62803383 126.25447559 166.42803383 126.25447559 C166.42803383 138.79447559 166.42803383 151.33447559 166.42803383 164.25447559 C143.32803383 164.25447559 120.22803383 164.25447559 96.42803383 164.25447559 C96.43963539 169.51256153 96.45123695 174.77064747 96.46319008 180.18806934 C96.46829692 183.5103362 96.4731107 186.83259824 96.47686195 190.15486622 C96.48285008 195.43327808 96.48994955 200.71167267 96.50347328 205.9900713 C96.51430327 210.24348675 96.5203109 214.49688368 96.52291107 218.75031185 C96.52476512 220.37669192 96.52838535 222.00307093 96.53376389 223.62944317 C96.54097581 225.89957752 96.54202471 228.16963444 96.54155922 230.43977833 C96.54377983 231.73439487 96.54600044 233.02901142 96.54828835 234.36285877 C96.42803383 237.25447559 96.42803383 237.25447559 95.42803383 238.25447559 C80.57803383 238.25447559 65.72803383 238.25447559 50.42803383 238.25447559 C50.09803383 191.39447559 49.76803383 144.53447559 49.42803383 96.25447559 C28.96803383 96.25447559 8.50803383 96.25447559 -12.57196617 96.25447559 C-16.57196617 94.25447559 -16.57196617 94.25447559 -17.57196617 92.25447559 C-17.6804514 89.76424222 -17.7292757 87.30154856 -17.73309898 84.81062794 C-17.73806389 84.04290058 -17.74302879 83.27517323 -17.74814415 82.4841814 C-17.76278488 79.93624958 -17.76957282 77.38838013 -17.77509117 74.84041309 C-17.78084341 73.0688168 -17.78660114 71.29722053 -17.79236412 69.52562428 C-17.80288116 65.80486733 -17.80871844 62.08413203 -17.81220055 58.36336231 C-17.81767046 53.6087875 -17.84166319 48.85450121 -17.8701725 44.10001659 C-17.88885599 40.43672845 -17.89400763 36.77350879 -17.89553642 33.11017704 C-17.89855331 31.35838853 -17.90654913 29.60660094 -17.9197216 27.85485935 C-17.93689312 25.39458483 -17.93487451 22.93500157 -17.92841148 20.47469044 C-17.93762627 19.75853565 -17.94684105 19.04238087 -17.95633507 18.30452442 C-17.90753643 12.33529504 -16.25013944 7.61082213 -13.57196617 2.25447559 C-9.04218784 0.31416406 -4.85809175 -0.03112314 0 0 Z " fill="#5C5378" transform="translate(371.57196617126465,615.7455244064331)"/>
<path d="M0 0 C0.53028809 0.41515869 1.06057617 0.83031738 1.60693359 1.25805664 C6.41308716 5.14372761 9.87654072 9.49194825 13.375 14.5625 C14.17357422 15.6752832 14.17357422 15.6752832 14.98828125 16.81054688 C19.66031203 23.48572572 19.66031203 23.48572572 20 28 C20.66 28 21.32 28 22 28 C29.84667702 45.77132779 32.43028962 63.04993014 32.375 82.3125 C32.37445618 83.0323407 32.37391235 83.7521814 32.37335205 84.49383545 C32.33448626 95.71609984 31.66216547 106.31461498 28 117 C27.76442383 117.69270996 27.52884766 118.38541992 27.28613281 119.09912109 C24.96997868 125.70697259 22.61888214 131.63163887 18 137 C16.97519531 138.28970703 16.97519531 138.28970703 15.9296875 139.60546875 C15.25164062 140.45753906 14.57359375 141.30960938 13.875 142.1875 C12.85019531 143.47720703 12.85019531 143.47720703 11.8046875 144.79296875 C10 147 10 147 8 149 C8.4332382 153.34159988 11.25769028 156.43955374 13.72265625 159.87890625 C15 162 15 162 15 165 C15.66 165 16.32 165 17 165 C18.17333984 166.55712891 18.17333984 166.55712891 19.4609375 168.7265625 C20.16863281 169.90412109 20.16863281 169.90412109 20.890625 171.10546875 C21.38046875 171.93691406 21.8703125 172.76835938 22.375 173.625 C23.34003404 175.24285119 24.30615959 176.86005187 25.2734375 178.4765625 C25.73459961 179.25290039 26.19576172 180.02923828 26.67089844 180.82910156 C27.83907086 182.73714513 29.06683188 184.56812084 30.3515625 186.3984375 C32 189 32 189 32 192 C25.33049668 192.35665422 18.66346382 192.60076242 11.98657227 192.76904297 C9.71903657 192.83921127 7.45212922 192.93458596 5.18676758 193.05615234 C-13.12476436 194.01377586 -13.12476436 194.01377586 -17.91143799 190.66125488 C-21.40074478 186.94298236 -23.24944662 182.73802865 -25 178 C-25.39372803 177.02530762 -25.78745605 176.05061523 -26.19311523 175.04638672 C-26.59252319 174.03342529 -26.59252319 174.03342529 -27 173 C-28.55847656 173.50660156 -28.55847656 173.50660156 -30.1484375 174.0234375 C-31.55720098 174.47424181 -32.9660604 174.92474641 -34.375 175.375 C-35.05433594 175.59671875 -35.73367188 175.8184375 -36.43359375 176.046875 C-61.10140749 183.88524572 -86.02477347 180.97452334 -108.98046875 169.51171875 C-128.38573642 158.99321014 -142.9149376 140.50566152 -149.9375 119.73828125 C-151.78456844 113.23958826 -152.89838282 106.66180657 -154 100 C-154.17345947 99.20746826 -154.34691895 98.41493652 -154.52563477 97.59838867 C-159.45619919 70.5906701 -153.09330214 39.14105444 -137.68359375 16.4921875 C-124.11886222 -2.40311989 -103.83783554 -16.10680337 -80.8125 -20.5 C-51.4719053 -23.65041314 -23.13532841 -19.22785656 0 0 Z " fill="#FBFBFC" transform="translate(715,678)"/>
<path d="M0 0 C2.59348892 2.31256155 4.88670698 4.73045532 7.17578125 7.34375 C8.27792969 8.49810547 8.27792969 8.49810547 9.40234375 9.67578125 C14.26210383 14.85322882 18.59697612 20.39663881 22.93359375 26.00805664 C28.31870702 32.91574658 34.15335107 39.50446588 40.4921875 45.5546875 C42.17578125 47.34375 42.17578125 47.34375 42.17578125 49.34375 C46.38659253 50.39060075 50.21812918 50.381988 54.54516602 50.23144531 C56.06135216 50.18370838 57.57754192 50.13608642 59.09373474 50.08856201 C59.89859251 50.06127769 60.70345028 50.03399338 61.53269768 50.00588226 C83.39256951 49.27773182 105.24803913 49.12385566 127.1184082 49.10351562 C132.17490949 49.09793587 137.23115435 49.07360046 142.28757381 49.04554367 C146.26765169 49.02682125 150.24766694 49.02170766 154.22778511 49.02017975 C156.09297731 49.01719923 157.95816968 49.00933194 159.82331657 48.99599457 C181.48045017 48.85150882 200.19644672 51.68329272 217.17578125 66.34375 C219.01673433 68.27294048 220.57324519 70.20703525 222.17578125 72.34375 C222.83578125 72.67375 223.49578125 73.00375 224.17578125 73.34375 C224.17578125 74.00375 224.17578125 74.66375 224.17578125 75.34375 C224.83578125 75.34375 225.49578125 75.34375 226.17578125 75.34375 C226.17578125 76.00375 226.17578125 76.66375 226.17578125 77.34375 C227.16578125 77.67375 228.15578125 78.00375 229.17578125 78.34375 C230.73193359 79.90356445 230.73193359 79.90356445 232.38671875 81.89453125 C236.06703019 86.23141954 239.90199987 90.39077587 243.80078125 94.53125 C244.76371094 95.55895508 244.76371094 95.55895508 245.74609375 96.60742188 C248.49330998 99.53196866 251.24328312 102.42660454 254.13671875 105.20703125 C256.17578125 107.34375 256.17578125 107.34375 256.17578125 109.34375 C257.16578125 109.67375 258.15578125 110.00375 259.17578125 110.34375 C259.17578125 111.00375 259.17578125 111.66375 259.17578125 112.34375 C259.748125 112.5809375 260.32046875 112.818125 260.91015625 113.0625 C263.66371045 114.61968238 265.34373759 116.46867797 267.42578125 118.84375 C268.48539063 120.03484375 268.48539063 120.03484375 269.56640625 121.25 C271.17578125 123.34375 271.17578125 123.34375 271.17578125 125.34375 C271.83578125 125.34375 272.49578125 125.34375 273.17578125 125.34375 C274.73539726 127.08376935 276.225277 128.88678197 277.67578125 130.71875 C280.78337263 134.65857541 280.78337263 134.65857541 284.17578125 138.34375 C284.17578125 139.66375 284.17578125 140.98375 284.17578125 142.34375 C284.83578125 142.34375 285.49578125 142.34375 286.17578125 142.34375 C288.12976238 148.20569338 287.89986046 154.77715335 285.17578125 160.34375 C284.01004166 161.76419186 282.81030674 163.15711609 281.5859375 164.52734375 C280.94922119 165.2433374 280.31250488 165.95933105 279.65649414 166.69702148 C279.16785889 167.24044189 278.67922363 167.7838623 278.17578125 168.34375 C279.33980469 168.35776855 279.33980469 168.35776855 280.52734375 168.37207031 C284.07744412 168.42608437 287.62627073 168.50967303 291.17578125 168.59375 C292.39652344 168.60792969 293.61726563 168.62210938 294.875 168.63671875 C302.8961188 168.85350574 309.24595724 169.41392599 315.17578125 175.34375 C315.15234375 177.5078125 315.15234375 177.5078125 314.80078125 179.96875 C314.68992187 180.78601563 314.5790625 181.60328125 314.46484375 182.4453125 C314.32175781 183.38503906 314.32175781 183.38503906 314.17578125 184.34375 C313.51578125 184.34375 312.85578125 184.34375 312.17578125 184.34375 C312.17578125 185.00375 312.17578125 185.66375 312.17578125 186.34375 C281.15578125 186.34375 250.13578125 186.34375 218.17578125 186.34375 C218.17578125 185.68375 218.17578125 185.02375 218.17578125 184.34375 C217.51578125 184.34375 216.85578125 184.34375 216.17578125 184.34375 C215.65059438 180.74246857 215.58355773 178.51301181 217.2421875 175.23828125 C219.94006296 171.63435238 221.90020091 169.63795753 226.37670898 168.60546875 C230.14313654 168.33223262 233.83761248 168.28657178 237.61328125 168.34375 C238.91716797 168.33214844 240.22105469 168.32054687 241.56445312 168.30859375 C244.76983048 168.28511113 247.97076936 168.2979323 251.17578125 168.34375 C250.59948975 167.77189972 250.02319824 167.20004944 249.42944336 166.61087036 C244.00892463 161.23036556 238.59319064 155.84511177 233.18281555 150.45440865 C230.40087725 147.68292374 227.61710243 144.91333641 224.82910156 142.14794922 C222.14042525 139.48094592 219.45661239 136.80913804 216.77615356 134.1338768 C215.75079363 133.11222261 214.72367023 132.09233522 213.6947937 131.07422256 C212.2580689 129.65193854 210.8280774 128.22286243 209.3984375 126.79345703 C208.58125244 125.9807132 207.76406738 125.16796936 206.92211914 124.33059692 C205.17578125 122.34375 205.17578125 122.34375 205.17578125 120.34375 C203.85578125 120.01375 202.53578125 119.68375 201.17578125 119.34375 C201.19898438 120.35824219 201.2221875 121.37273437 201.24609375 122.41796875 C201.42407849 134.62854983 200.89008798 146.7797885 200.23828125 158.96875 C200.19471497 159.80973236 200.15114868 160.65071472 200.10626221 161.5171814 C199.97987087 163.931056 199.8467305 166.34445039 199.7109375 168.7578125 C199.67234116 169.49345932 199.63374481 170.22910614 199.59397888 170.98704529 C199.29132812 176.11265627 199.29132812 176.11265627 198.17578125 178.34375 C186.25472024 180.679248 173.07055785 179.49634172 160.98828125 179.46875 C159.25887802 179.46692215 159.25887802 179.46692215 157.49453735 179.46505737 C137.94824507 179.44112102 118.40665663 179.22255261 98.86328125 178.90625 C97.57483307 178.8866925 96.28638489 178.86713501 94.95889282 178.84698486 C91.32663748 178.79035682 87.69458688 178.72663422 84.0625 178.66015625 C82.42424759 178.6350724 82.42424759 178.6350724 80.75289917 178.60948181 C79.76411774 178.58954666 78.7753363 178.56961151 77.7565918 178.54907227 C76.8913237 178.53352798 76.0260556 178.5179837 75.13456726 178.50196838 C73.17578125 178.34375 73.17578125 178.34375 72.17578125 177.34375 C72.07719714 175.81368241 72.04779379 174.27908921 72.04638672 172.74584961 C72.04323456 171.76228989 72.0400824 170.77873016 72.03683472 169.7653656 C72.03987106 168.14707603 72.03987106 168.14707603 72.04296875 166.49609375 C72.04201202 165.37803848 72.0410553 164.25998322 72.04006958 163.10804749 C72.03938626 160.71957341 72.04125101 158.33109751 72.04541016 155.94262695 C72.05064164 152.37641906 72.04553158 148.81034394 72.0390625 145.24414062 C72.03514501 130.25385706 72.41172382 115.31452467 73.17578125 100.34375 C71.88329468 100.36731567 71.88329468 100.36731567 70.56469727 100.39135742 C67.32741573 100.44288779 64.09034524 100.48029394 60.8527832 100.50854492 C59.45915797 100.52350938 58.06557881 100.54388851 56.67211914 100.57006836 C48.72084402 100.7155707 41.53087874 100.69336117 34.17578125 97.34375 C33.34949219 96.99957031 32.52320313 96.65539062 31.671875 96.30078125 C20.25375923 89.95256887 11.23333166 78.96055317 2.7722168 69.18310547 C0.6152851 66.69796655 -1.60206258 64.27057845 -3.82421875 61.84375 C-7.34392303 57.98274106 -10.83549914 54.10338638 -14.25390625 50.15234375 C-15.24683202 49.00875013 -16.25076881 47.87454493 -17.26953125 46.75390625 C-20.66969386 42.95427099 -23.65102761 38.89215133 -26.57421875 34.71875 C-26.96335449 34.16807861 -27.35249023 33.61740723 -27.75341797 33.05004883 C-32.51271707 26.1502087 -33.660917 20.63797615 -32.82421875 12.34375 C-31.32421875 8.65625 -31.32421875 8.65625 -29.82421875 6.34375 C-29.16421875 6.34375 -28.50421875 6.34375 -27.82421875 6.34375 C-27.59734375 5.745625 -27.37046875 5.1475 -27.13671875 4.53125 C-25.21830644 1.33389615 -22.60682827 -0.10316356 -19.07421875 -1.19921875 C-12.67205205 -2.49965886 -5.81051848 -3.40755164 0 0 Z " fill="#5B5277" transform="translate(446.82421875,419.65625)"/>
<path d="M0 0 C40.59 0 81.18 0 123 0 C123 12.87 123 25.74 123 39 C97.26 39 71.52 39 45 39 C45 52.53 45 66.06 45 80 C68.1 80 91.2 80 115 80 C115 92.54 115 105.08 115 118 C91.9 118 68.8 118 45 118 C45.01160156 123.25808594 45.02320313 128.51617188 45.03515625 133.93359375 C45.04026309 137.2558606 45.04507687 140.57812264 45.04882812 143.90039062 C45.05481625 149.17880248 45.06191572 154.45719707 45.07543945 159.7355957 C45.08626944 163.98901115 45.09227707 168.24240809 45.09487724 172.49583626 C45.09673129 174.12221633 45.10035152 175.74859534 45.10573006 177.37496758 C45.11294198 179.64510193 45.11399088 181.91515885 45.11352539 184.18530273 C45.115746 185.47991928 45.11796661 186.77453583 45.12025452 188.10838318 C45 191 45 191 44 192 C42.58774954 192.0928726 41.17091066 192.11746772 39.75561523 192.11352539 C38.84211304 192.11340454 37.92861084 192.11328369 36.98742676 192.11315918 C36.02091187 192.10804321 35.05439697 192.10292725 34.05859375 192.09765625 C33.17498169 192.09664917 32.29136963 192.09564209 31.38098145 192.09460449 C28.06645663 192.08935528 24.75200449 192.07542978 21.4375 192.0625 C17.43497938 192.05055099 13.43245552 192.03984814 9.42993164 192.02905273 C7.44145197 192.02353347 5.45297235 192.01799603 3.4644928 192.01243591 C2.60481431 192.01004127 1.74513582 192.00764662 0.85940647 192.00517941 C0.24580234 192.0034702 -0.3678018 192.001761 -1 192 C-1.08289068 152.21342949 -0.86583192 112.43289299 -0.55461788 72.64783072 C-0.48071606 63.18739083 -0.41017534 53.72692577 -0.33936501 44.26646233 C-0.22884003 29.51095413 -0.11409928 14.75548199 0 0 Z " fill="#FCFBFC" transform="translate(423,662)"/>
<path d="M0 0 C0.79019531 0.32742188 1.58039063 0.65484375 2.39453125 0.9921875 C15.98676112 7.5145535 23.81121149 20.32930599 28.984375 33.8515625 C33.70998444 48.50095175 32.13190665 65.10039735 25.25 78.625 C22.44317332 83.55799789 19.24171188 88.18464576 15 92 C14.34 92 13.68 92 13 92 C12.505 93.485 12.505 93.485 12 95 C-2.51890281 106.43285928 -17.8025653 108.82114166 -36 107 C-44.61883894 105.41002073 -51.63427233 100.84011713 -58 95 C-58.79535156 94.27296875 -59.59070313 93.5459375 -60.41015625 92.796875 C-64.90908383 88.49546131 -68.29791661 84.6043211 -71 79 C-71.52013672 77.95199219 -71.52013672 77.95199219 -72.05078125 76.8828125 C-78.51863612 63.28855754 -79.70630313 45.73876347 -75.0625 31.375 C-70.28801035 20.14958474 -62.36337909 11.61684206 -53 4 C-52.36449219 3.47921875 -51.72898437 2.9584375 -51.07421875 2.421875 C-36.85694723 -7.32405124 -15.31928985 -6.75390589 0 0 Z " fill="#5B5277" transform="translate(606,347)"/>
<path d="M0 0 C3.43927579 1.2419607 6.25207819 2.55740284 9 5 C9 5.66 9 6.32 9 7 C9.99 7.33 10.98 7.66 12 8 C13.4296875 9.453125 13.4296875 9.453125 14.875 11.25 C16.78280983 13.57172368 18.65254976 15.63804866 20.8125 17.75 C23 20 23 20 24 23 C24.99 23.33 25.98 23.66 27 24 C28.39589947 25.55003004 29.71887019 27.16634239 31 28.8125 C34.36078925 33.02985405 37.82017217 37.05953379 41.5 41 C45.80837736 45.62892781 49.84679491 50.41494511 53.8125 55.34375 C56.01037098 58.01259334 58.29327516 60.5727066 60.625 63.125 C63.33719728 66.09861389 65.89338766 69.09677924 68.3125 72.3125 C71.74970373 76.83429702 75.57469505 80.92105687 79.45410156 85.05957031 C83.4102735 89.30202793 87.08180625 93.71902285 90.71484375 98.2421875 C93.260918 101.31488566 95.9169532 104.25799433 98.625 107.1875 C99.09470215 107.69603516 99.5644043 108.20457031 100.04833984 108.72851562 C101.36523826 110.15264123 102.6826063 111.57633254 104 113 C108.54029402 117.94487468 112.586815 123.07529234 116.4921875 128.53515625 C119.79992741 133.13765609 123.21995638 137.65683583 126.625 142.1875 C127.25857422 143.03086914 127.89214844 143.87423828 128.54492188 144.74316406 C129.77726839 146.38307345 131.01016598 148.02256889 132.24365234 149.66162109 C133.38249032 151.17785548 134.518417 152.69628263 135.65087891 154.21728516 C138.38892265 157.89241339 141.17863397 161.48746952 144.125 165 C149.5055853 171.53097979 154.54009967 178.30843264 159.58496094 185.10009766 C160.85471746 186.80493638 162.13165944 188.50388405 163.4140625 190.19921875 C174.04142842 204.26264114 184.09142921 218.74193232 194.07958984 233.26367188 C195.38014008 235.11678236 196.71523671 236.94603945 198.08056641 238.75195312 C199.05582275 240.0580957 199.05582275 240.0580957 200.05078125 241.390625 C200.64157471 242.15922852 201.23236816 242.92783203 201.84106445 243.71972656 C203.29450035 246.57944666 202.92984631 247.9945032 202 251 C196.12849572 251.12389553 190.25775757 251.21447924 184.38525391 251.2746582 C182.38902527 251.29975272 180.39288807 251.33383626 178.39697266 251.37719727 C175.52223112 251.43807246 172.64870752 251.46626024 169.7734375 251.48828125 C168.88570648 251.51408768 167.99797546 251.5398941 167.08334351 251.56648254 C162.78265149 251.56841513 159.91961323 251.39818841 156.50830078 248.62841797 C154.11817792 246.12383721 152.28370661 243.77222886 150.5 240.8125 C149.91347656 239.8534375 149.32695312 238.894375 148.72265625 237.90625 C147.62431219 236.05326138 146.52776639 234.19920485 145.43359375 232.34375 C142.64494188 227.62561316 139.72659414 223.21666412 136.3828125 218.875 C133.22726443 214.59629076 130.8183618 210.00049496 129 205 C128.34 205 127.68 205 127 205 C125.639507 203.00280829 124.40139183 201.02137125 123.1875 198.9375 C119.93302569 193.47420021 119.93302569 193.47420021 116.3125 188.25 C114.52537815 185.7383693 113.07417175 183.38417883 111.625 180.6875 C109.90786135 177.51739788 108.05718094 174.60270284 105.9375 171.6875 C102.35816779 166.68581307 99.20867494 161.46700662 96.0625 156.1875 C95.54059082 155.31174316 95.01868164 154.43598633 94.48095703 153.53369141 C93.45484421 151.80957762 92.42927604 150.08513954 91.40429688 148.36035156 C86.33808799 139.84503385 81.05015699 131.57130144 75.359375 123.45703125 C71.40163925 117.73161773 67.80338908 111.77052859 64.14599609 105.85107422 C58.93638813 97.41286709 58.93638813 97.41286709 53.3125 89.25 C51.37099026 86.52139171 49.70252527 83.77901871 48.08056641 80.85449219 C46.89582383 78.82121052 45.60082197 76.8962321 44.2734375 74.953125 C40.81808528 69.80078411 37.6850231 64.48346687 34.5625 59.125 C29.51448923 50.52155826 24.38369419 42.0272028 18.8125 33.75 C17.16635278 31.25239733 15.69071068 28.7000531 14.21508789 26.10009766 C12.84946894 23.73982958 11.43880727 21.41042258 10.01953125 19.08203125 C9.49552734 18.22029297 8.97152344 17.35855469 8.43164062 16.47070312 C7.34383401 14.68481072 6.25263338 12.90098162 5.15820312 11.11914062 C4.63806641 10.26126953 4.11792969 9.40339844 3.58203125 8.51953125 C2.87397339 7.36094604 2.87397339 7.36094604 2.15161133 6.17895508 C1.05360747 4.10143029 0.45259407 2.29560151 0 0 Z " fill="#5B5278" transform="translate(292,327)"/>
<path d="M0 0 C1.32149048 0.01740234 1.32149048 0.01740234 2.66967773 0.03515625 C15.33609438 0.3543692 24.16839624 4.2731643 33.13671875 13.51171875 C43.9686289 26.59929783 47.8175719 43.55316098 47.625 60.1875 C47.61766846 61.49251465 47.61033691 62.7975293 47.6027832 64.14208984 C47.37276515 75.54107704 46.29234229 87.12070195 39.0625 96.375 C38.71123047 95.45178955 38.35996094 94.5285791 37.99804688 93.57739258 C36.25390691 89.67422634 34.40760406 86.12808688 31.0625 83.375 C24.94210014 81.0749807 17.98024632 81.83228543 11.5625 82.0625 C9.76827565 82.07950917 7.97398531 82.09063356 6.1796875 82.09570312 C1.80358845 82.12081248 -2.563937 82.22601677 -6.9375 82.375 C-5.60501287 86.81344626 -3.84497266 90.55349493 -1.49609375 94.54296875 C-1.16835464 95.10446121 -0.84061554 95.66595367 -0.50294495 96.24446106 C0.53446782 98.02027153 1.57918014 99.79162986 2.625 101.5625 C4.00486206 103.90810708 5.38011005 106.25629058 6.75390625 108.60546875 C7.36435791 109.64082764 7.97480957 110.67618652 8.60375977 111.74291992 C10.0625 114.375 10.0625 114.375 11.0625 117.375 C5.07251757 121.36832162 -3.9486046 119.96790735 -10.9375 119.375 C-22.54235068 117.04076718 -29.56596234 110.51076886 -36.17578125 101.05859375 C-47.56049297 83.7164719 -48.85690271 59.66085982 -45.21484375 39.57421875 C-44.32514208 36.04783034 -43.28034417 32.75205366 -41.9375 29.375 C-41.59847656 28.47523438 -41.25945313 27.57546875 -40.91015625 26.6484375 C-36.31396957 16.0821151 -27.57900939 6.99036833 -16.93359375 2.53662109 C-11.19301762 0.47112374 -6.07852689 -0.10271923 0 0 Z " fill="#24193C" transform="translate(652.9375,697.625)"/>
<path d="M0 0 C0.66 0 1.32 0 2 0 C1.37567078 6.25781151 0.03708836 12.0678843 -1.625 18.125 C-4.12604127 27.43587521 -6.35993701 36.78756643 -8.5 46.1875 C-10.73798178 55.94934895 -13.20534082 65.55477888 -16.1875 75.11328125 C-18.56325479 82.74300087 -20.77336103 90.42190172 -22.99816895 98.09667969 C-23.73530796 100.63687102 -24.47643181 103.17587631 -25.21777344 105.71484375 C-25.68188509 107.31373114 -26.14576181 108.91268675 -26.609375 110.51171875 C-26.92624268 111.59358711 -26.92624268 111.59358711 -27.24951172 112.6973114 C-28.28648636 116.29088694 -29.20057022 119.86800711 -29.96191406 123.53051758 C-30.74897205 127.1911216 -31.88546708 130.55325168 -33.25488281 134.03225708 C-34.50514255 137.33400584 -35.42846842 140.72224973 -36.375 144.12109375 C-36.58560059 144.86529068 -36.79620117 145.60948761 -37.01318359 146.37623596 C-37.67866891 148.72909839 -38.33971398 151.08317369 -39 153.4375 C-46.24059625 179.19629273 -57.10936147 197.31409653 -74 218 C-74.73992188 218.91394531 -75.47984375 219.82789063 -76.2421875 220.76953125 C-80.27875682 225.73709383 -84.36536522 230.62141756 -88.6875 235.34375 C-90.21596078 237.07893638 -90.21596078 237.07893638 -91 240 C-95.93328521 239.57714698 -97.72201258 237.58291648 -101 234 C-102.05380859 233.11248047 -102.05380859 233.11248047 -103.12890625 232.20703125 C-108.62487021 227.41837396 -108.62487021 227.41837396 -109.53515625 223.9765625 C-109.25234889 217.89054806 -106.00899109 212.60148141 -103.21875 207.328125 C-100.45783136 202.05406248 -98.06757296 196.61411971 -95.625 191.1875 C-91.61665543 182.3314685 -87.33960735 173.69742186 -82.6796875 165.16796875 C-80.94209533 162.10130844 -80.94209533 162.10130844 -80 159 C-79.34 159 -78.68 159 -78 159 C-77.89888916 158.31333252 -77.79777832 157.62666504 -77.69360352 156.91918945 C-76.86203813 153.41935585 -75.48261954 150.52582634 -73.90234375 147.29296875 C-73.59246521 146.65526047 -73.28258667 146.01755219 -72.96331787 145.36051941 C-71.96028068 143.300075 -70.94904156 141.24378072 -69.9375 139.1875 C-69.24345691 137.7660023 -68.54985453 136.34428934 -67.85668945 134.92236328 C-64.20950137 127.45144521 -60.52565276 119.99936946 -56.78027344 112.57714844 C-52.36296133 103.79494108 -48.21019445 94.8826726 -44 86 C-37.23383448 71.73339462 -30.33203608 57.54711607 -23.22851562 43.4453125 C-22.12987532 41.25851177 -21.03892913 39.06819482 -19.953125 36.875 C-15.92738344 28.74845197 -11.79722343 20.677323 -7.625 12.625 C-6.83814819 11.09758179 -6.83814819 11.09758179 -6.03540039 9.53930664 C-5.29471313 8.11606079 -5.29471313 8.11606079 -4.5390625 6.6640625 C-4.09771973 5.81279785 -3.65637695 4.9615332 -3.20166016 4.08447266 C-2 2 -2 2 0 0 Z " fill="#5B5277" transform="translate(792,261)"/>
<path d="M0 0 C-0.94947784 7.83319216 -6.78465909 15.00465036 -10.8203125 21.65820312 C-12.66790405 24.71983709 -14.47566184 27.76283026 -16 31 C-16.66 31 -17.32 31 -18 31 C-18.309375 31.78375 -18.61875 32.5675 -18.9375 33.375 C-20 36 -20 36 -21 38 C-21.66 38 -22.32 38 -23 38 C-23.20238281 38.77988281 -23.40476562 39.55976563 -23.61328125 40.36328125 C-25.52554966 45.3782725 -28.32084024 49.66619621 -31.1875 54.1875 C-32.07477783 55.60349487 -32.07477783 55.60349487 -32.97998047 57.0480957 C-36.34831332 62.41582569 -39.74284801 67.7670828 -43.17578125 73.09375 C-44.74738653 75.59754943 -46.27621521 78.11909837 -47.79296875 80.65625 C-48.29038574 81.48423096 -48.78780273 82.31221191 -49.30029297 83.1652832 C-50.2964398 84.8267609 -51.286515 86.49189631 -52.27001953 88.16088867 C-52.7236084 88.9160376 -53.17719727 89.67118652 -53.64453125 90.44921875 C-54.05034424 91.13330811 -54.45615723 91.81739746 -54.87426758 92.5222168 C-55.43150513 93.25371948 -55.43150513 93.25371948 -56 94 C-56.66 94 -57.32 94 -58 94 C-58.23460937 94.680625 -58.46921875 95.36125 -58.7109375 96.0625 C-60.29085755 99.66280265 -62.40466744 102.77603543 -64.625 106 C-68.62475291 111.89864013 -72.43322713 117.86948395 -76.140625 123.95703125 C-80.10003903 130.43682859 -84.23189564 136.80815188 -88.33911133 143.19482422 C-89.4920922 144.98770342 -90.64448713 146.78095835 -91.796875 148.57421875 C-93.17895794 150.72485999 -94.56467115 152.8729816 -95.953125 155.01953125 C-99.52397371 160.56987218 -102.88272341 166.18204138 -106 172 C-106.66 172 -107.32 172 -108 172 C-108.23589844 172.67160156 -108.47179687 173.34320313 -108.71484375 174.03515625 C-110.32515089 177.75012014 -112.38903725 181.02970475 -114.5625 184.4375 C-115.2285022 185.49094604 -115.2285022 185.49094604 -115.90795898 186.56567383 C-117.26779826 188.71313201 -118.63369169 190.85665378 -120 193 C-120.7814105 194.2342734 -121.56266924 195.4686429 -122.34375 196.703125 C-127.36674972 204.60908987 -132.6148468 212.33602311 -138 220 C-139.65 219.34 -141.3 218.68 -143 218 C-143 217.34 -143 216.68 -143 216 C-143.99 215.67 -144.98 215.34 -146 215 C-147.578125 213.3984375 -147.578125 213.3984375 -149.25 211.375 C-151.63004616 208.56221818 -154.05378908 205.88957198 -156.6875 203.3125 C-159.35837131 200.6955252 -161.6733838 197.92981299 -164 195 C-164.66 194.67 -165.32 194.34 -166 194 C-165.51914814 189.40338219 -163.91087335 187.47851429 -160.6875 184.25 C-155.44678619 178.73704132 -151.17711313 172.793269 -146.9362793 166.48730469 C-146.45199463 165.77606445 -145.96770996 165.06482422 -145.46875 164.33203125 C-145.04013672 163.68983643 -144.61152344 163.0476416 -144.16992188 162.38598633 C-143.78384766 161.92861084 -143.39777344 161.47123535 -143 161 C-142.34 161 -141.68 161 -141 161 C-140.64421875 160.20916016 -140.64421875 160.20916016 -140.28125 159.40234375 C-138.60978852 156.26835348 -136.57467734 153.43641226 -134.5 150.5625 C-134.06075195 149.95067871 -133.62150391 149.33885742 -133.16894531 148.70849609 C-129.31002497 143.36505871 -125.31535253 138.13322395 -121.265625 132.93359375 C-118.82276557 129.77051196 -116.46824359 126.55261088 -114.15625 123.29296875 C-113.58390625 122.65294922 -113.58390625 122.65294922 -113 122 C-112.34 122 -111.68 122 -111 122 C-110.77054688 121.45085937 -110.54109375 120.90171875 -110.3046875 120.3359375 C-108.62433974 117.32741068 -106.49272275 115.12998204 -104.125 112.625 C-99.80808413 108.00595812 -95.61029427 103.30399345 -91.5 98.5 C-90.74420654 97.61948975 -90.74420654 97.61948975 -89.97314453 96.72119141 C-87.98961245 94.39643538 -86.0582455 92.08154371 -84.28125 89.59375 C-83.8584375 89.0678125 -83.435625 88.541875 -83 88 C-82.34 88 -81.68 88 -81 88 C-80.63648438 87.15888672 -80.63648438 87.15888672 -80.265625 86.30078125 C-78.7464899 83.53914367 -76.89104743 81.49968558 -74.75 79.1875 C-71.94387197 76.13736084 -69.19964641 73.07213306 -66.5625 69.875 C-65.716875 68.92625 -64.87125 67.9775 -64 67 C-63.34 67 -62.68 67 -62 67 C-61.68095703 66.20335937 -61.68095703 66.20335937 -61.35546875 65.390625 C-59.47752794 62.0785219 -56.9196175 59.49063244 -54.3125 56.75 C-53.21275749 55.57755797 -52.11379397 54.40438476 -51.015625 53.23046875 C-50.48904297 52.6689209 -49.96246094 52.10737305 -49.41992188 51.52880859 C-47.75944076 49.74099348 -46.15234183 47.91330072 -44.5625 46.0625 C-41.30075475 42.28785132 -37.90256947 38.64714557 -34.5 35 C-30.48477543 30.69518605 -26.51272271 26.36940806 -22.6640625 21.9140625 C-19.93381562 18.77363768 -17.13906115 15.69187565 -14.34375 12.609375 C-12.7211332 10.80286162 -11.11813796 8.97860282 -9.53125 7.140625 C-8.7371875 6.22796875 -7.943125 5.3153125 -7.125 4.375 C-6.40570312 3.53710938 -5.68640625 2.69921875 -4.9453125 1.8359375 C-3 0 -3 0 0 0 Z " fill="#5B5278" transform="translate(874,327)"/>
<path d="M0 0 C0 0.66 0 1.32 0 2 C1.8253125 1.87625 1.8253125 1.87625 3.6875 1.75 C17.39087405 1.79309237 28.36249583 9.1340258 38.875 17.0625 C39.42285156 17.47387207 39.97070312 17.88524414 40.53515625 18.30908203 C43.89152202 20.9102655 46.41778592 23.64939428 49 27 C49.80824219 27.74894531 50.61648438 28.49789063 51.44921875 29.26953125 C54.69875377 32.74797686 56.66268037 36.47013337 58.8125 40.6875 C59.21919922 41.45900391 59.62589844 42.23050781 60.04492188 43.02539062 C63 48.71205357 63 48.71205357 63 51 C63.51046875 51.22816406 64.0209375 51.45632813 64.546875 51.69140625 C71.08455489 55.17886288 77.48281655 59.27147514 81 66 C82.66254403 74.10290834 83.80697571 87.38604858 80 95 C79.34 95 78.68 95 78 95 C77.66935547 95.86238281 77.66935547 95.86238281 77.33203125 96.7421875 C75.58550426 99.70257636 73.48057554 101.13696518 70.6875 103.125 C69.74261719 103.80820312 68.79773438 104.49140625 67.82421875 105.1953125 C64.23982209 107.48575684 61.54775597 109.17588136 57.25 108.6875 C55 108 55 108 54 107 C53.92767189 105.52267149 53.92465247 104.0418699 53.94995117 102.56298828 C53.96943062 101.14483322 53.96943062 101.14483322 53.98930359 99.69802856 C54.00701309 98.66588226 54.0247226 97.63373596 54.04296875 96.5703125 C54.06538362 94.39063437 54.08683607 92.21094617 54.10742188 90.03125 C54.1443215 86.59054341 54.1870596 83.15035087 54.24682617 79.70996094 C54.30179703 76.39250551 54.33055752 73.07561303 54.35546875 69.7578125 C54.37925095 68.74590851 54.40303314 67.73400452 54.42753601 66.69143677 C54.47873798 52.52010519 47.86360761 40.79067054 38.1875 30.75 C22.70425418 16.0350957 6.6506764 11.33175875 -14.33984375 11.6640625 C-31.58913612 12.36269493 -48.38251634 21.46808113 -60 34 C-69.3184777 45.54485773 -73.24125967 56.30058892 -73.4140625 71.0625 C-73.43342865 72.09439453 -73.4527948 73.12628906 -73.4727478 74.18945312 C-73.53214727 77.45955343 -73.57876973 80.72968969 -73.625 84 C-73.66321627 86.22787926 -73.70227009 88.45574432 -73.7421875 90.68359375 C-73.83781585 96.12226905 -73.92297736 101.56103108 -74 107 C-82.04372197 108.29796156 -86.04512112 106.46081353 -92.8125 102.25 C-98.05676129 96.85590268 -99.47998123 91.27069071 -99.44921875 83.8671875 C-99.42472656 82.92101562 -99.40023438 81.97484375 -99.375 81 C-99.37371094 80.05382812 -99.37242187 79.10765625 -99.37109375 78.1328125 C-99.20108124 64.4940309 -99.20108124 64.4940309 -94.828125 59.5390625 C-93.97734375 58.90742188 -93.1265625 58.27578125 -92.25 57.625 C-91.40953125 56.97789062 -90.5690625 56.33078125 -89.703125 55.6640625 C-87 54 -87 54 -83.734375 53.0234375 C-82.83203125 52.68570313 -81.9296875 52.34796875 -81 52 C-80.14605283 50.19805567 -80.14605283 50.19805567 -80 48 C-75.20261857 34.14318584 -67.78607654 24.62202915 -56 16 C-55.04996094 15.28714844 -54.09992187 14.57429688 -53.12109375 13.83984375 C-45.84562982 8.65692337 -38.49311582 5.65281342 -30 3 C-28.94296875 2.6390625 -27.8859375 2.278125 -26.796875 1.90625 C-18.20946292 -0.87626341 -8.91682878 -0.09739255 0 0 Z " fill="#5A5177" transform="translate(592,316)"/>
<path d="M0 0 C3.48199023 1.16066341 3.60726596 1.57848874 5.19921875 4.69140625 C5.59963379 5.46323242 6.00004883 6.23505859 6.41259766 7.03027344 C7.04367432 8.28372559 7.04367432 8.28372559 7.6875 9.5625 C8.34951416 10.84882324 8.34951416 10.84882324 9.02490234 12.16113281 C12.09908514 18.15429264 15.111098 24.17975551 18.09814453 30.21679688 C20.330789 34.71586259 22.67117934 39.1460763 25.0625 43.5625 C27.91504804 48.85265511 30.56300542 54.20147913 33.07226562 59.66552734 C36.00061944 66.0390992 39.02725281 72.36422382 42.0625 78.6875 C42.55717773 79.72052246 43.05185547 80.75354492 43.56152344 81.81787109 C46.0563857 87.01343416 48.58843879 92.1857613 51.18359375 97.33203125 C53.28093783 101.50733419 55.1949248 105.69243418 57 110 C58.30916727 112.84481495 59.65441931 115.67225712 61 118.5 C62.02268995 120.64918677 63.04188974 122.79950338 64.046875 124.95703125 C64.67034343 126.29340005 65.30534828 127.62446225 65.953125 128.94921875 C67.72426881 132.72497532 68.05617874 133.77528505 67 138 C57.43 138 47.86 138 38 138 C35.46298223 132.29171001 33.29879664 127.24539715 31.5 121.375 C31.18699951 120.35684204 31.18699951 120.35684204 30.86767578 119.31811523 C29.08602768 113.45143164 27.50586132 107.53849113 25.9921875 101.59765625 C25.27610241 99.00114297 24.50608185 96.51177109 23.62890625 93.97265625 C21.44714363 87.5330475 19.78910252 80.94775915 18.0625 74.375 C17.72798828 73.11042969 17.39347656 71.84585938 17.04882812 70.54296875 C16.37307995 67.98840627 15.69811236 65.43363717 15.02392578 62.87866211 C13.97565385 58.90667753 12.92552439 54.93519817 11.87109375 50.96484375 C11.55970459 49.79042725 11.24831543 48.61601074 10.92749023 47.40600586 C9.99607629 43.98559105 9.00845294 40.58591608 8 37.1875 C6.17406499 30.89018083 4.7291754 24.54387881 3.39453125 18.12768555 C2.56568652 14.21548619 1.49756429 10.71763766 0 7 C-0.07646165 4.6679198 -0.09143299 2.33154122 0 0 Z " fill="#5B5277" transform="translate(374,263)"/>
<path d="M0 0 C1.17347488 0.0261438 2.34694977 0.0522876 3.5559845 0.07922363 C6.11901498 0.13713087 8.6817907 0.20728615 11.24420166 0.28808594 C15.43246611 0.41768581 19.62014321 0.47724637 23.81005859 0.5234375 C25.26935862 0.5399305 26.72865835 0.5564509 28.18795776 0.57299805 C29.28238504 0.58537003 29.28238504 0.58537003 30.39892197 0.59799194 C34.10398775 0.64310224 37.80881478 0.70213244 41.51367188 0.76171875 C42.61870465 0.77943077 42.61870465 0.77943077 43.74606133 0.79750061 C45.24298056 0.82154974 46.73989892 0.84565377 48.23681641 0.86981201 C52.09991076 0.93168868 55.96304291 0.99111171 59.82617188 1.05078125 C67.32555842 1.16695774 74.82490094 1.28570976 82.32421875 1.40625 C82.20979414 3.01120567 82.08227181 4.61523119 81.94921875 6.21875 C81.87960937 7.11207031 81.81 8.00539063 81.73828125 8.92578125 C81.32421875 11.40625 81.32421875 11.40625 79.32421875 14.40625 C75.00479806 15.79826226 70.45424779 15.56091109 65.95727539 15.56738281 C65.12737595 15.57234772 64.2974765 15.57731262 63.44242859 15.58242798 C60.7064022 15.59699257 57.97043373 15.60384104 55.234375 15.609375 C53.32775369 15.61512987 51.4211324 15.62088756 49.51451111 15.62664795 C45.52082043 15.63714081 41.52714978 15.64299511 37.53344727 15.64648438 C32.42117152 15.65197434 27.3091614 15.67602035 22.19696903 15.70445633 C18.26011889 15.72309418 14.32333271 15.72828886 10.38644218 15.72982025 C8.50182069 15.73284324 6.61720022 15.74085982 4.73262215 15.75400543 C2.0950617 15.77109464 -0.54184974 15.76917906 -3.17944336 15.76269531 C-3.95417999 15.7719101 -4.72891663 15.78112488 -5.52713013 15.7906189 C-10.32198392 15.75376847 -13.56439038 14.86698123 -17.67578125 12.40625 C-18.27423845 8.21704959 -17.89229925 6.70695537 -15.38208008 3.22070312 C-10.88132023 -1.01170245 -5.84525948 -0.25666324 0 0 Z " fill="#595176" transform="translate(419.67578125,592.59375)"/>
<path d="M0 0 C1.32149048 0.01740234 1.32149048 0.01740234 2.66967773 0.03515625 C14.48095161 0.3328183 22.01478749 3.58391423 31.0625 11.375 C32.0525 12.86 32.0525 12.86 33.0625 14.375 C11.2825 14.705 -10.4975 15.035 -32.9375 15.375 C-26.12825145 7.43087669 -26.12825145 7.43087669 -23.125 5.625 C-22.54105469 5.25890625 -21.95710937 4.8928125 -21.35546875 4.515625 C-14.23889291 1.15853268 -7.85436198 -0.13272854 0 0 Z " fill="#5A5275" transform="translate(652.9375,697.625)"/>
<path d="M0 0 C0.7355908 0.00276538 1.4711816 0.00553076 2.22906303 0.00837994 C3.49531013 0.00219395 3.49531013 0.00219395 4.78713799 -0.00411701 C5.71502129 0.00666882 6.64290459 0.01745464 7.59890556 0.02856731 C8.57455467 0.02812923 9.55020378 0.02769115 10.55541801 0.0272398 C13.79130645 0.02933554 17.02668148 0.05270378 20.26247978 0.07617474 C22.50164316 0.08176789 24.7408102 0.08603931 26.97997856 0.0890379 C32.88198746 0.10050871 38.78377593 0.12999521 44.68569756 0.16314983 C50.70475087 0.19380251 56.72383971 0.20753295 62.74294853 0.22265911 C74.55945179 0.2548627 86.37579123 0.30608608 98.19216728 0.36914349 C97.86216728 1.02914349 97.53216728 1.68914349 97.19216728 2.36914349 C47.19716728 2.86414349 47.19716728 2.86414349 -3.80783272 3.36914349 C-1.80783272 0.36914349 -1.80783272 0.36914349 0 0 Z " fill="#F4F3F8" transform="translate(595.8078327178955,921.630856513977)"/>
<path d="M0 0 C37.95 0 75.9 0 115 0 C113 2 113 2 110.96875 2.21118164 C110.1540625 2.19434326 109.339375 2.17750488 108.5 2.16015625 C107.613125 2.14919922 106.72625 2.13824219 105.8125 2.12695312 C104.884375 2.10568359 103.95625 2.08441406 103 2.0625 C101.1667443 2.02812646 99.33340315 1.99797214 97.5 1.97265625 C96.6853125 1.95468994 95.870625 1.93672363 95.03125 1.91821289 C92.93066996 1.8634704 92.93066996 1.8634704 91 3 C88.53596522 3.01679295 86.10501481 2.97145396 83.64453125 2.87890625 C82.07381599 2.82978291 80.50309637 2.78079856 78.93237305 2.73193359 C77.68102066 2.69021027 77.68102066 2.69021027 76.40438843 2.64764404 C60.99879763 2.14156737 45.60118645 1.88497133 30.1875 1.875 C29.33217682 1.87259308 28.47685364 1.87018616 27.59561157 1.8677063 C25.18218925 1.86185025 22.76889244 1.86313054 20.35546875 1.8671875 C19.63644379 1.86519852 18.91741882 1.86320953 18.17660522 1.86116028 C14.46391172 1.82670699 14.46391172 1.82670699 11 3 C9.11515056 2.75378093 7.23977913 2.43111913 5.375 2.0625 C4.37210937 1.86785156 3.36921875 1.67320312 2.3359375 1.47265625 C1.17964844 1.23869141 1.17964844 1.23869141 0 1 C0 0.67 0 0.34 0 0 Z " fill="#F4F4F8" transform="translate(444,922)"/>
<path d="M0 0 C0.33 1.32 0.66 2.64 1 4 C0.01 4.495 0.01 4.495 -1 5 C-2.00916033 6.76591887 -2.00916033 6.76591887 -3 9 C-4 11 -5 13 -6 15 C-5.34 15 -4.68 15 -4 15 C-4.125 16.875 -4.125 16.875 -5 19 C-8.17745463 20.38150201 -10.53122824 21 -14 21 C-13.690625 22.6396875 -13.690625 22.6396875 -13.375 24.3125 C-13 28 -13 28 -15 31 C-16.98 30.67 -18.96 30.34 -21 30 C-16.80533413 18.4803206 -7.97214757 9.08590348 0 0 Z M-9 20 C-8.34 20.33 -7.68 20.66 -7 21 C-7.33 21.66 -7.66 22.32 -8 23 C-8.66 22.67 -9.32 22.34 -10 22 C-9.67 21.34 -9.34 20.68 -9 20 Z " fill="#251A3D" transform="translate(260,249)"/>
<path d="M0 0 C1.16097702 0.00007553 2.32195404 0.00015106 3.51811218 0.00022888 C5.3979052 0.00797081 5.3979052 0.00797081 7.31567383 0.01586914 C8.59879959 0.01728409 9.88192535 0.01869904 11.20393372 0.02015686 C14.61190749 0.02397134 18.01983851 0.03379248 21.42779541 0.04486084 C24.90669171 0.05509796 28.38559493 0.05965941 31.86450195 0.06469727 C38.6880872 0.07541572 45.51164409 0.0924793 52.33520508 0.11352539 C52.33520508 0.44352539 52.33520508 0.77352539 52.33520508 1.11352539 C33.52520508 1.11352539 14.71520508 1.11352539 -4.66479492 1.11352539 C-4.99479492 2.10352539 -5.32479492 3.09352539 -5.66479492 4.11352539 C-6.32479492 3.78352539 -6.98479492 3.45352539 -7.66479492 3.11352539 C-7.99479492 4.43352539 -8.32479492 5.75352539 -8.66479492 7.11352539 C-9.65479492 7.11352539 -10.64479492 7.11352539 -11.66479492 7.11352539 C-8.58666326 0.95726207 -7.10808181 -0.01541883 0 0 Z " fill="#2A2141" transform="translate(627.664794921875,711.886474609375)"/>
<path d="M0 0 C0.66 0 1.32 0 2 0 C1.44854729 5.23880078 0.57077907 9.97350697 -1 15 C-1.33 13.68 -1.66 12.36 -2 11 C-2.99 11.33 -3.98 11.66 -5 12 C-5.66 11.67 -6.32 11.34 -7 11 C-6.02262231 9.35310365 -5.0430468 7.70751146 -4.0625 6.0625 C-3.51722656 5.14597656 -2.97195313 4.22945313 -2.41015625 3.28515625 C-1 1 -1 1 0 0 Z " fill="#4F466B" transform="translate(792,261)"/>
<path d="M0 0 C0.66 0.99 1.32 1.98 2 3 C1.505 3.928125 1.01 4.85625 0.5 5.8125 C-1.21289852 8.86527516 -1.21289852 8.86527516 -1 12 C-1.639375 12.103125 -2.27875 12.20625 -2.9375 12.3125 C-3.9584375 12.6528125 -3.9584375 12.6528125 -5 13 C-5.33 13.99 -5.66 14.98 -6 16 C-6.99 15.34 -7.98 14.68 -9 14 C-6.03 9.38 -3.06 4.76 0 0 Z " fill="#DEDCE0" transform="translate(925,850)"/>
<path d="M0 0 C1.84618297 3.37776975 2.95263196 6.82013334 4.0625 10.5 C4.57490234 12.18609375 4.57490234 12.18609375 5.09765625 13.90625 C5.78527876 16.26381291 6.43217728 18.61163229 7 21 C6.01 20.67 5.02 20.34 4 20 C4 19.01 4 18.02 4 17 C3.34 16.67 2.68 16.34 2 16 C0.95191959 14.02477154 -0.0520411 12.02518491 -1 10 C-0.34 9.34 0.32 8.68 1 8 C0.67 7.34 0.34 6.68 0 6 C-0.99 6.99 -1.98 7.98 -3 9 C-2.30058404 5.85262818 -1.23921302 2.97411124 0 0 Z " fill="#D7D3DB" transform="translate(227,816)"/>
<path d="M0 0 C0 0.99 0 1.98 0 3 C1.98 3 3.96 3 6 3 C6 4.32 6 5.64 6 7 C1.875 6.3125 -2.25 5.625 -6.375 4.9375 C-7.43460937 4.76089844 -8.49421875 4.58429687 -9.5859375 4.40234375 C-10.38257813 4.26957031 -11.17921875 4.13679687 -12 4 C-11.67 3.01 -11.34 2.02 -11 1 C-10.071875 1.20625 -9.14375 1.4125 -8.1875 1.625 C-4.33959484 2.07769472 -3.53541174 0 0 0 Z " fill="#28223A" transform="translate(335,913)"/>
<path d="M0 0 C3.08089673 2.77280706 4.68775452 5.06326356 6 9 C2.78548731 10.60725635 -0.43612536 10.05748185 -4 10 C-3.34 9.0925 -2.68 8.185 -2 7.25 C0.34939828 4.06824185 0.34939828 4.06824185 0 0 Z " fill="#1E1330" transform="translate(658,806)"/>
<path d="M0 0 C-1.1875 2.4375 -1.1875 2.4375 -3 5 C-5.6875 5.8125 -5.6875 5.8125 -8 6 C-7.67 6.66 -7.34 7.32 -7 8 C-9.31 8.33 -11.62 8.66 -14 9 C-5.39177489 -1.7972583 -5.39177489 -1.7972583 0 0 Z " fill="#585271" transform="translate(634,704)"/>
<path d="M0 0 C0 0.66 0 1.32 0 2 C-0.80824219 2.19335938 -1.61648438 2.38671875 -2.44921875 2.5859375 C-3.51785156 2.84632813 -4.58648438 3.10671875 -5.6875 3.375 C-6.74324219 3.63023437 -7.79898438 3.88546875 -8.88671875 4.1484375 C-11.9797675 4.92696945 -11.9797675 4.92696945 -14.75 6.125 C-17.32539218 7.1265414 -18.45113485 6.94402413 -21 6 C-18.31612245 3.31612245 -15.82898587 2.90453004 -12.1875 1.875 C-10.96417969 1.52179687 -9.74085938 1.16859375 -8.48046875 0.8046875 C-5.47872805 0.11068235 -3.05450799 -0.17454331 0 0 Z " fill="#57516C" transform="translate(634,657)"/>
<path d="M0 0 C0.66 0.33 1.32 0.66 2 1 C1.938125 1.9075 1.87625 2.815 1.8125 3.75 C2.01672076 7.28982642 2.64551835 8.44931155 5 11 C4.34 11.66 3.68 12.32 3 13 C0.36 9.7 -2.28 6.4 -5 3 C-3.68 2.34 -2.36 1.68 -1 1 C-0.67 0.67 -0.34 0.34 0 0 Z " fill="#E5E2E6" transform="translate(917,253)"/>
<path d="M0 0 C0.66 0.33 1.32 0.66 2 1 C2 1.99 2 2.98 2 4 C3.32 4 4.64 4 6 4 C6 3.34 6 2.68 6 2 C6.99 2.33 7.98 2.66 9 3 C5.2440786 6.42931954 0.76533255 7.56429083 -4 9 C-4 8.34 -4 7.68 -4 7 C-3.525625 6.54625 -3.05125 6.0925 -2.5625 5.625 C-0.77906263 3.77022513 -0.4308007 2.49864408 0 0 Z " fill="#E9E6E9" transform="translate(308,208)"/>
<path d="M0 0 C7.82490023 -0.62599202 14.60937233 1.67485871 22 4 C18.59265653 6.11331865 18.59265653 6.11331865 15.95703125 5.609375 C15.24933594 5.32578125 14.54164063 5.0421875 13.8125 4.75 C9.27030213 3.05233468 4.74809295 1.95410851 0 1 C0 0.67 0 0.34 0 0 Z " fill="#150E29" transform="translate(825,207)"/>
<path d="M0 0 C4.1724106 0.51881113 6.25416821 1.71151274 9.3125 4.5625 C10.00988281 5.20316406 10.70726562 5.84382812 11.42578125 6.50390625 C11.94527344 6.99761719 12.46476563 7.49132812 13 8 C12.34 8.66 11.68 9.32 11 10 C11 9.34 11 8.68 11 8 C10.38125 7.87625 9.7625 7.7525 9.125 7.625 C7 7 7 7 5 5 C4.01 4.67 3.02 4.34 2 4 C2 3.34 2 2.68 2 2 C1.34 2 0.68 2 0 2 C0 1.34 0 0.68 0 0 Z " fill="#1E1631" transform="translate(585,834)"/>
<path d="M0 0 C0 4.01262338 -1.73091135 5.76826769 -4 9 C-4.33 9.66 -4.66 10.32 -5 11 C-5.99 11.495 -5.99 11.495 -7 12 C-8.13350534 14.01669827 -8.13350534 14.01669827 -9 16 C-9.66 15.67 -10.32 15.34 -11 15 C-9.44476633 11.50683117 -7.34563239 8.77131239 -4.9375 5.8125 C-4.22464844 4.93207031 -3.51179687 4.05164063 -2.77734375 3.14453125 C-1.88495567 2.06778168 -0.98887464 0.98887464 0 0 Z " fill="#DCDAE6" transform="translate(587,683)"/>
<path d="M0 0 C1.37149501 2.74299002 0.83290956 4.08481654 0 7 C-1.5625 9.3125 -1.5625 9.3125 -3 11 C-3.66 10.34 -4.32 9.68 -5 9 C-5.66 9.66 -6.32 10.32 -7 11 C-6.40716379 7.60807637 -5.23256811 5.7892243 -2.9375 3.25 C-2.38964844 2.63640625 -1.84179688 2.0228125 -1.27734375 1.390625 C-0.85582031 0.93171875 -0.43429687 0.4728125 0 0 Z " fill="#383247" transform="translate(729,819)"/>
<path d="M0 0 C0.99 0.33 1.98 0.66 3 1 C3.66 0.67 4.32 0.34 5 0 C5.66 1.65 6.32 3.3 7 5 C6.01 5.33 5.02 5.66 4 6 C3.34 6.66 2.68 7.32 2 8 C1.34 7.34 0.68 6.68 0 6 C0 4 0 2 0 0 Z " fill="#E9E6E4" transform="translate(233,844)"/>
<path d="M0 0 C-1.28548409 1.33929505 -2.57858155 2.67128643 -3.875 4 C-4.59429688 4.7425 -5.31359375 5.485 -6.0546875 6.25 C-8 8 -8 8 -10 8 C-10 4 -10 4 -9 1 C-9 1.66 -9 2.32 -9 3 C-7.68 3 -6.36 3 -5 3 C-5.33 2.01 -5.66 1.02 -6 0 C-2.25 -1.125 -2.25 -1.125 0 0 Z " fill="#544F6B" transform="translate(592,679)"/>
<path d="M0 0 C0.33 0 0.66 0 1 0 C1.09765625 6.15234375 1.09765625 6.15234375 1 8 C0.67 8.33 0.34 8.66 0 9 C1.32 9.66 2.64 10.32 4 11 C2.741875 10.87625 1.48375 10.7525 0.1875 10.625 C-0.52019531 10.55539062 -1.22789062 10.48578125 -1.95703125 10.4140625 C-4 10 -4 10 -7 8 C-6.360625 7.71125 -5.72125 7.4225 -5.0625 7.125 C-2.84793921 6.17176549 -2.84793921 6.17176549 -2 4 C-1.34 4 -0.68 4 0 4 C0 2.68 0 1.36 0 0 Z " fill="#534B6F" transform="translate(512,413)"/>
<path d="M0 0 C5.27323808 -0.68041782 9.39388711 1.75213663 14 4 C13.01 4.66 12.02 5.32 11 6 C6.42906548 5.00631858 3.47908237 3.06977856 0 0 Z " fill="#E0DBE3" transform="translate(863,217)"/>
<path d="M0 0 C1.98 1.32 3.96 2.64 6 4 C5.01 4.99 4.02 5.98 3 7 C1.02 6.34 -0.96 5.68 -3 5 C-2.34 4.34 -1.68 3.68 -1 3 C-1.33 2.34 -1.66 1.68 -2 1 C-1.34 0.67 -0.68 0.34 0 0 Z " fill="#EBE6E3" transform="translate(1091,41)"/>
<path d="M0 0 C0.66 0 1.32 0 2 0 C2.33 2.31 2.66 4.62 3 7 C-0.75 8.125 -0.75 8.125 -3 7 C-2.67 5.02 -2.34 3.04 -2 1 C-1.34 1.33 -0.68 1.66 0 2 C0 1.34 0 0.68 0 0 Z " fill="#1D1433" transform="translate(563,797)"/>
<path d="M0 0 C2.0625 1.6875 2.0625 1.6875 4 4 C3.75 6.75 3.75 6.75 3 9 C2.01 9 1.02 9 0 9 C0 8.34 0 7.68 0 7 C-0.66 6.67 -1.32 6.34 -2 6 C-1.34 6 -0.68 6 0 6 C0 4.02 0 2.04 0 0 Z " fill="#534A6F" transform="translate(491,569)"/>
<path d="M0 0 C0.99 0 1.98 0 3 0 C2.42365861 4.75481646 0.44931479 7.97048212 -2 12 C-2.66 11.01 -3.32 10.02 -4 9 C-3.34 8.34 -2.68 7.68 -2 7 C-1.67 6.34 -1.34 5.68 -1 5 C-0.67 4.34 -0.34 3.68 0 3 C-0.66 2.67 -1.32 2.34 -2 2 C-1.34 1.34 -0.68 0.68 0 0 Z " fill="#4D4266" transform="translate(871,327)"/>
<path d="M0 0 C0.33 1.32 0.66 2.64 1 4 C0.01 4.495 0.01 4.495 -1 5 C-3.16343011 7.03268602 -3.16343011 7.03268602 -5 10 C-5.66 10.66 -6.32 11.32 -7 12 C-7 11.34 -7 10.68 -7 10 C-7.66 9.67 -8.32 9.34 -9 9 C-6.03 6.03 -3.06 3.06 0 0 Z " fill="#DFDEDA" transform="translate(72,43)"/>
<path d="M0 0 C1.4540625 0.0309375 1.4540625 0.0309375 2.9375 0.0625 C2.37378586 3.33204202 1.43787734 4.88825883 -1.0625 7.0625 C-3.19574818 4.92925182 -3.59488345 3.9617226 -4.0625 1.0625 C-3.0625 0.0625 -3.0625 0.0625 0 0 Z " fill="#ECE9E4" transform="translate(61.0625,1058.9375)"/>
<path d="M0 0 C4.05281712 1.22527029 7.44360764 2.69880494 11 5 C7.98968256 5.93423645 7.13349732 6.04449911 4 5 C4 4.34 4 3.68 4 3 C3.34 3 2.68 3 2 3 C1.67 3.66 1.34 4.32 1 5 C1 4.34 1 3.68 1 3 C0.34 2.67 -0.32 2.34 -1 2 C-0.67 1.34 -0.34 0.68 0 0 Z " fill="#F7F4F7" transform="translate(293,905)"/>
<path d="M0 0 C1.32 0 2.64 0 4 0 C3 3 3 3 1.2578125 4.203125 C0.55398438 4.54859375 -0.14984375 4.8940625 -0.875 5.25 C-1.57367187 5.60578125 -2.27234375 5.9615625 -2.9921875 6.328125 C-5 7 -5 7 -8 6 C-2.25 2 -2.25 2 0 2 C0 1.34 0 0.68 0 0 Z " fill="#1F1932" transform="translate(873,899)"/>
<path d="M0 0 C3.34373475 0.55728913 6.03312999 1.35173889 9 3 C8.67 3.99 8.34 4.98 8 6 C8 5.34 8 4.68 8 4 C6.02 4.33 4.04 4.66 2 5 C0 1.125 0 1.125 0 0 Z " fill="#1A152D" transform="translate(608,849)"/>
<path d="M0 0 C1.485 0.99 1.485 0.99 3 2 C3.99 1.34 4.98 0.68 6 0 C7 3.875 7 3.875 7 5 C7.33 5.66 7.66 6.32 8 7 C6.68 7.33 5.36 7.66 4 8 C0 2.25 0 2.25 0 0 Z " fill="#1C1632" transform="translate(617,797)"/>
<path d="M0 0 C4.81033104 2.54664585 8.32442148 4.99027798 12 9 C11.01 9.33 10.02 9.66 9 10 C7.49410612 8.71520959 5.99542625 7.42195918 4.5 6.125 C3.6646875 5.40570312 2.829375 4.68640625 1.96875 3.9453125 C1.3190625 3.30335938 0.669375 2.66140625 0 2 C0 1.34 0 0.68 0 0 Z " fill="#58516C" transform="translate(708,671)"/>
<path d="M0 0 C0.66 0.33 1.32 0.66 2 1 C0.71480435 3.86697492 -0.57129254 5.97607712 -3 8 C-3.66 8 -4.32 8 -5 8 C-5.66 8.66 -6.32 9.32 -7 10 C-6.8125 7.6875 -6.8125 7.6875 -6 5 C-3.5 3.3125 -3.5 3.3125 -1 2 C-0.67 1.34 -0.34 0.68 0 0 Z " fill="#564C71" transform="translate(715,511)"/>
<path d="M0 0 C0.99 0.33 1.98 0.66 3 1 C4.1875 4.0625 4.1875 4.0625 5 7 C4.01 6.67 3.02 6.34 2 6 C2 7.65 2 9.3 2 11 C-0.32590854 7.36576791 -0.16265833 4.22911669 0 0 Z " fill="#483C61" transform="translate(374,263)"/>
<path d="M0 0 C3.63 0.66 7.26 1.32 11 2 C11 2.33 11 2.66 11 3 C2.57142857 4.28571429 2.57142857 4.28571429 -2 3 C-1.34 2.01 -0.68 1.02 0 0 Z " fill="#DCDBD7" transform="translate(1073,34)"/>
<path d="M0 0 C0.87840996 3.09720845 0.99435406 4.90645403 0 8 C-0.66 8 -1.32 8 -2 8 C-2 9.32 -2 10.64 -2 12 C-2.66 12 -3.32 12 -4 12 C-4.33 12.66 -4.66 13.32 -5 14 C-4.34580901 8.93001981 -2.1453591 4.58009223 0 0 Z " fill="#1A132E" transform="translate(742,797)"/>
<path d="M0 0 C0.33 0.99 0.66 1.98 1 3 C-0.98 3.99 -0.98 3.99 -3 5 C-2.34 7.97 -1.68 10.94 -1 14 C-3.49505962 11.50494038 -3.35948376 10.32671112 -3.625 6.875 C-3.69976563 5.96492188 -3.77453125 5.05484375 -3.8515625 4.1171875 C-3.90054688 3.41851562 -3.94953125 2.71984375 -4 2 C-2.68 1.34 -1.36 0.68 0 0 Z " fill="#D9D7DA" transform="translate(941,296)"/>
<path d="M0 0 C1.32 0 2.64 0 4 0 C4 0.66 4 1.32 4 2 C4.99 2 5.98 2 7 2 C7.33 1.34 7.66 0.68 8 0 C8 2.31 8 4.62 8 7 C6.66382648 6.02471263 5.3311249 5.04466681 4 4.0625 C3.2575 3.51722656 2.515 2.97195312 1.75 2.41015625 C1.1725 1.94480469 0.595 1.47945312 0 1 C0 0.67 0 0.34 0 0 Z " fill="#DFDEE1" transform="translate(894,237)"/>
<path d="M0 0 C0.95465783 2.16967689 1.14401212 3.56328793 0.3984375 5.82421875 C-0.35870385 7.5684743 -1.17609198 9.28627131 -2 11 C-3.32 9.35 -4.64 7.7 -6 6 C-5.38125 5.938125 -4.7625 5.87625 -4.125 5.8125 C-1.72238859 5.171081 -1.72238859 5.171081 -0.75 2.4375 C-0.5025 1.633125 -0.255 0.82875 0 0 Z " fill="#161124" transform="translate(695,783)"/>
<path d="M0 0 C0.66 0 1.32 0 2 0 C2.50559908 1.43554025 3.0042749 2.8735202 3.5 4.3125 C3.7784375 5.11300781 4.056875 5.91351563 4.34375 6.73828125 C5 9 5 9 5 12 C4.34 12 3.68 12 3 12 C2.49440092 10.56445975 1.9957251 9.1264798 1.5 7.6875 C1.2215625 6.88699219 0.943125 6.08648437 0.65625 5.26171875 C0 3 0 3 0 0 Z " fill="#2B253C" transform="translate(932,291)"/>
<path d="M0 0 C0.66 0.33 1.32 0.66 2 1 C1.01 3.31 0.02 5.62 -1 8 C-1.99 7.34 -2.98 6.68 -4 6 C-4.99 6 -5.98 6 -7 6 C-4.69 4.02 -2.38 2.04 0 0 Z " fill="#312A44" transform="translate(279,232)"/>
<path d="M0 0 C2.97 0.495 2.97 0.495 6 1 C3.6499811 3.72107452 1.44325025 4.96702492 -2 6 C-2.99 5.67 -3.98 5.34 -5 5 C-2.8614515 2.8614515 -1.86724686 2.57344937 1 2 C0.67 1.34 0.34 0.68 0 0 Z " fill="#19132D" transform="translate(855,907)"/>
<path d="M0 0 C-0.66 0 -1.32 0 -2 0 C-2.33 0.99 -2.66 1.98 -3 3 C-6.63 2.67 -10.26 2.34 -14 2 C-14 1.67 -14 1.34 -14 1 C-12.41913952 0.63495397 -10.83516093 0.28339494 -9.25 -0.0625 C-8.36828125 -0.25972656 -7.4865625 -0.45695313 -6.578125 -0.66015625 C-4.01320972 -0.99825872 -2.42908361 -0.81158635 0 0 Z " fill="#3E384E" transform="translate(676,856)"/>
<path d="M0 0 C0.5775 0.45375 1.155 0.9075 1.75 1.375 C3.7800333 2.84113516 5.73539843 3.94857784 8 5 C7.67 5.66 7.34 6.32 7 7 C3.22454612 5.90931332 0.52956528 5.0916909 -2 2 C-1.34 1.34 -0.68 0.68 0 0 Z " fill="#4F4869" transform="translate(700,664)"/>
<path d="M0 0 C3.7952131 1.49097658 5.61042731 3.75700849 8 7 C6.35 7.66 4.7 8.32 3 9 C3 7.02 3 5.04 3 3 C2.34 3 1.68 3 1 3 C0.67 2.01 0.34 1.02 0 0 Z " fill="#1E1236" transform="translate(653,544)"/>
<path d="M0 0 C3.48330216 0.64505596 6.09432866 1.98217268 9 4 C9 4.66 9 5.32 9 6 C2.42696629 4.1011236 2.42696629 4.1011236 0 1 C0 0.67 0 0.34 0 0 Z " fill="#362F45" transform="translate(296,904)"/>
<path d="M0 0 C0.66 0.33 1.32 0.66 2 1 C2.625 3.5625 2.625 3.5625 3 6 C1.35 7.32 -0.3 8.64 -2 10 C-1.34 6.7 -0.68 3.4 0 0 Z " fill="#E5E2E6" transform="translate(254,248)"/>
<path d="M0 0 C1.33332095 2.6666419 0.67102033 4.16680303 0 7 C-2.97 6.505 -2.97 6.505 -6 6 C-2.25 1.125 -2.25 1.125 0 0 Z " fill="#2C263E" transform="translate(270,240)"/>
<path d="M0 0 C2.97 0.495 2.97 0.495 6 1 C5.67 1.66 5.34 2.32 5 3 C2.93359375 3.4140625 2.93359375 3.4140625 0.4375 3.625 C-0.38878906 3.69976563 -1.21507812 3.77453125 -2.06640625 3.8515625 C-3.02353516 3.92503906 -3.02353516 3.92503906 -4 4 C-2.68 3.34 -1.36 2.68 0 2 C0 1.34 0 0.68 0 0 Z " fill="#18112C" transform="translate(842,912)"/>
<path d="M0 0 C2.5654594 2.5654594 2.54046087 4.47686668 3 8 C2.01 8.495 2.01 8.495 1 9 C0.34 8.67 -0.32 8.34 -1 8 C-0.67 5.36 -0.34 2.72 0 0 Z " fill="#2A243F" transform="translate(745,782)"/>
<path d="M0 0 C0.66 0.33 1.32 0.66 2 1 C2.625 3.5625 2.625 3.5625 3 6 C1.35 6.33 -0.3 6.66 -2 7 C-2.6875 5.1875 -2.6875 5.1875 -3 3 C-1.5625 1.25 -1.5625 1.25 0 0 Z " fill="#291D42" transform="translate(291,326)"/>
<path d="M0 0 C0.92538169 3.70152678 1.08174162 4.63458162 0 8 C-1.65 8 -3.3 8 -5 8 C-3.35 5.36 -1.7 2.72 0 0 Z " fill="#342D44" transform="translate(247,265)"/>
<path d="M0 0 C0.66 1.32 1.32 2.64 2 4 C0.6875 5.5 0.6875 5.5 -1 7 C-1.99 7 -2.98 7 -4 7 C-2.79618552 4.50638429 -1.54571278 2.31856917 0 0 Z " fill="#D6D3D9" transform="translate(915,865)"/>
<path d="M0 0 C0.66 0.33 1.32 0.66 2 1 C2 1.66 2 2.32 2 3 C2.66 3.33 3.32 3.66 4 4 C4 5.32 4 6.64 4 8 C3.34 8 2.68 8 2 8 C1.34 6.35 0.68 4.7 0 3 C-0.66 3 -1.32 3 -2 3 C-1 1 -1 1 0 0 Z " fill="#312B41" transform="translate(252,862)"/>
<path d="M0 0 C2.52588702 2.36292656 3.88820837 3.66462511 5 7 C2.69 6.34 0.38 5.68 -2 5 C-1.34 3.35 -0.68 1.7 0 0 Z " fill="#D5D4D9" transform="translate(245,857)"/>
<path d="M0 0 C2 1 2 1 2.6875 2.9375 C3 5 3 5 2 7 C0.35 7 -1.3 7 -3 7 C-2 4 -2 4 0 2 C0 1.34 0 0.68 0 0 Z " fill="#1B1435" transform="translate(643,781)"/>
<path d="M0 0 C1.66842534 0.32441604 3.33480481 0.65939189 5 1 C5.7425 1.144375 6.485 1.28875 7.25 1.4375 C7.8275 1.623125 8.405 1.80875 9 2 C9.33 2.66 9.66 3.32 10 4 C6.04 3.67 2.08 3.34 -2 3 C-1.34 2.67 -0.68 2.34 0 2 C0 1.34 0 0.68 0 0 Z " fill="#635B7A" transform="translate(676,708)"/>
<path d="M0 0 C0.66 0.33 1.32 0.66 2 1 C1.34 1.66 0.68 2.32 0 3 C-0.33 3.99 -0.66 4.98 -1 6 C-1.66 5.67 -2.32 5.34 -3 5 C-3.33 5.66 -3.66 6.32 -4 7 C-4 3 -4 3 -3 1 C-2.01 0.67 -1.02 0.34 0 0 Z " fill="#564C71" transform="translate(361,617)"/>
<path d="M0 0 C2 1 2 1 3.125 4.0625 C3.41375 5.031875 3.7025 6.00125 4 7 C3.34 7 2.68 7 2 7 C1.67 7.66 1.34 8.32 1 9 C0.63877119 7.68942607 0.28619689 6.37646376 -0.0625 5.0625 C-0.35833984 3.96615234 -0.35833984 3.96615234 -0.66015625 2.84765625 C-0.77230469 2.23792969 -0.88445313 1.62820313 -1 1 C-0.67 0.67 -0.34 0.34 0 0 Z " fill="#E8E4EC" transform="translate(935,291)"/>
<path d="M0 0 C0.33 1.32 0.66 2.64 1 4 C-0.65 5.32 -2.3 6.64 -4 8 C-4.66 7.67 -5.32 7.34 -6 7 C-4.02 4.69 -2.04 2.38 0 0 Z " fill="#353046" transform="translate(260,249)"/>
<path d="M0 0 C0.66 1.98 1.32 3.96 2 6 C-1.65316671 4.75023244 -2.78065836 4.32901247 -5 1 C-3 0 -3 0 0 0 Z " fill="#D3D0D8" transform="translate(887,227)"/>
<path d="M0 0 C0.33 0.66 0.66 1.32 1 2 C-0.4375 4.625 -0.4375 4.625 -2 7 C-3.32 6.67 -4.64 6.34 -6 6 C-4.02 4.02 -2.04 2.04 0 0 Z " fill="#564D71" transform="translate(774,435)"/>
<path d="M0 0 C0.99 0.99 1.98 1.98 3 3 C2.34 3.66 1.68 4.32 1 5 C-0.32 5 -1.64 5 -3 5 C-3 4.01 -3 3.02 -3 2 C-2.01 1.34 -1.02 0.68 0 0 Z " fill="#554D72" transform="translate(388,432)"/>
<path d="M0 0 C3.65316671 1.24976756 4.78065836 1.67098753 7 5 C5.68 4.67 4.36 4.34 3 4 C3 3.34 3 2.68 3 2 C1.02 2.66 -0.96 3.32 -3 4 C-2.01 2.68 -1.02 1.36 0 0 Z " fill="#62567C" transform="translate(626,331)"/>
<path d="M0 0 C0.66 0 1.32 0 2 0 C1.67 2.97 1.34 5.94 1 9 C0.34 8.34 -0.32 7.68 -1 7 C-0.625 3.375 -0.625 3.375 0 0 Z " fill="#DEDAE2" transform="translate(224,314)"/>
<path d="M0 0 C1 3 1 3 0.3125 5.125 C-1 7 -1 7 -3.125 7.75 C-4.053125 7.87375 -4.053125 7.87375 -5 8 C-3.62845496 5.04590299 -2.01136276 2.55991624 0 0 Z " fill="#3D3A4E" transform="translate(253,257)"/>
<path d="M0 0 C2.31 1.98 4.62 3.96 7 6 C5.02 6.99 5.02 6.99 3 8 C3 6.68 3 5.36 3 4 C2.01 3.67 1.02 3.34 0 3 C0 2.01 0 1.02 0 0 Z " fill="#E1DFDA" transform="translate(1097,46)"/>
<path d="M0 0 C3.68266103 0.59950296 7.34543185 1.24758891 11 2 C11 2.33 11 2.66 11 3 C9.54257537 3.08096803 8.08387193 3.13917774 6.625 3.1875 C5.81289063 3.22230469 5.00078125 3.25710938 4.1640625 3.29296875 C3.44992187 3.19628906 2.73578125 3.09960938 2 3 C1.34 2.01 0.68 1.02 0 0 Z " fill="#C0BBC7" transform="translate(331,918)"/>
<path d="M0 0 C0.66 0.33 1.32 0.66 2 1 C2 1.99 2 2.98 2 4 C1.01 4 0.02 4 -1 4 C-1.66 5.32 -2.32 6.64 -3 8 C-4.33332095 5.3333581 -3.67102033 3.83319697 -3 1 C-2.01 1.33 -1.02 1.66 0 2 C0 1.34 0 0.68 0 0 Z " fill="#1E1235" transform="translate(932,828)"/>
<path d="M0 0 C1.98 1.65 3.96 3.3 6 5 C5.67 5.66 5.34 6.32 5 7 C4.34 7 3.68 7 3 7 C3 6.34 3 5.68 3 5 C2.34 5 1.68 5 1 5 C0.67 3.35 0.34 1.7 0 0 Z " fill="#2A243D" transform="translate(900,243)"/>
<path d="M0 0 C0.66 0.33 1.32 0.66 2 1 C1.67 2.32 1.34 3.64 1 5 C-0.32 5.33 -1.64 5.66 -3 6 C-3 4.68 -3 3.36 -3 2 C-2.01 1.34 -1.02 0.68 0 0 Z " fill="#1B1334" transform="translate(290,226)"/>
<path d="M0 0 C0.66 0.33 1.32 0.66 2 1 C1.34 2.32 0.68 3.64 0 5 C-1.65 4.67 -3.3 4.34 -5 4 C-3.36587557 2.29159719 -2.13093906 1.06546953 0 0 Z " fill="#302A41" transform="translate(302,218)"/>
<path d="M0 0 C3.1875 0.3125 3.1875 0.3125 6 1 C6 1.66 6 2.32 6 3 C3.03 3 0.06 3 -3 3 C-2.01 2.01 -1.02 1.02 0 0 Z " fill="#C9C9C4" transform="translate(96,1089)"/>
<path d="M0 0 C1.66666667 1.66666667 3.33333333 3.33333333 5 5 C4.67 5.99 4.34 6.98 4 8 C2.02 5.69 0.04 3.38 -2 1 C-1.34 0.67 -0.68 0.34 0 0 Z " fill="#E1E1DB" transform="translate(66,1072)"/>
<path d="M0 0 C0.66 0.33 1.32 0.66 2 1 C0.95125002 3.62187494 0.35068687 4.79371361 -2.125 6.25 C-2.74375 6.4975 -3.3625 6.745 -4 7 C-3.43628586 3.73045798 -2.50037734 2.17424117 0 0 Z " fill="#18112D" transform="translate(904,874)"/>
<path d="M0 0 C1.485 0.99 1.485 0.99 3 2 C3.1875 4.625 3.1875 4.625 3 7 C2.01 6.67 1.02 6.34 0 6 C0 4.02 0 2.04 0 0 Z M-1 7 C1 8 1 8 1 8 Z " fill="#1C1431" transform="translate(693,862)"/>
<path d="M0 0 C0.66 0 1.32 0 2 0 C2.33 1.32 2.66 2.64 3 4 C1.02 4.99 1.02 4.99 -1 6 C-1.33 5.34 -1.66 4.68 -2 4 C-1.0625 1.875 -1.0625 1.875 0 0 Z " fill="#1F1931" transform="translate(731,817)"/>
<path d="M0 0 C1.5 1.375 1.5 1.375 3 3 C3 3.66 3 4.32 3 5 C0.625 5.1875 0.625 5.1875 -2 5 C-2.66 4.01 -3.32 3.02 -4 2 C-2.68 2.33 -1.36 2.66 0 3 C0 2.01 0 1.02 0 0 Z " fill="#2F2943" transform="translate(654,798)"/>
<path d="M0 0 C1.65 0 3.3 0 5 0 C5 1.65 5 3.3 5 5 C3.02 4.34 1.04 3.68 -1 3 C-0.67 2.01 -0.34 1.02 0 0 Z " fill="#E7E5E8" transform="translate(855,211)"/>
</svg>
